<svg height="896" viewBox="0 0 1039 896" width="1039" xmlns="http://www.w3.org/2000/svg" xmlns:xlink="http://www.w3.org/1999/xlink"><mask id="a" fill="#fff"><path d="m.651.755h838.397v600.672h-838.397z" fill="#fff" fill-rule="evenodd"/></mask><mask id="b" fill="#fff"><path d="m.651.314h838.397v356.113h-838.397z" fill="#fff" fill-rule="evenodd"/></mask><mask id="c" fill="#fff"><path d="m.651 601.427h838.397v-600.672h-838.397z" fill="#fff" fill-rule="evenodd"/></mask><mask id="d" fill="#fff"><path d="m.44 85.216c0 46.771 37.972 84.743 84.743 84.743 46.771 0 84.742-37.972 84.742-84.743 0-46.771-37.971-84.743-84.742-84.743-46.771 0-84.743 37.972-84.743 84.743" fill="#fff" fill-rule="evenodd"/></mask><mask id="e" fill="#fff"><path d="m.44 85.216c0 46.771 37.972 84.743 84.743 84.743 46.771 0 84.742-37.972 84.742-84.743 0-46.771-37.971-84.743-84.742-84.743-46.771 0-84.743 37.972-84.743 84.743" fill="#fff" fill-rule="evenodd"/></mask><mask id="f" fill="#fff"><path d="m16.734 77.056c1.207 57.11-16.245 81.487-16.245 81.487l38.348-4.726s-12.652-21.799-11.645-78.478c1.004-56.68 14.422-73.959 14.422-73.959l-39.397-.46s13.311 19.027 14.517 76.136" fill="#fff" fill-rule="evenodd"/></mask><mask id="g" fill="#fff"><path d="m.919 34.752 35.904 10.256 12.254-31.665-28.053-13.173z" fill="#fff" fill-rule="evenodd"/></mask><mask id="h" fill="#fff"><path d="m2.457 27.734c-11.243 40.403 34.464 36.485 34.464 36.485s154.533 67.417 205.188 68.903c59.272 1.74 98.202-48.779 98.202-48.779l8.016-34.733-110.001-6.201s-109.301-42.853-179.523-42.85800042c-28.637-.00199958-50.764 7.12100042-56.346 27.18300042" fill="#fff" fill-rule="evenodd"/></mask><mask id="i" fill="#fff"><path d="m69.886 64.802c-12.05 10.812-69.538 195.627-69.538 195.627l31.198 23.127s68.808-99.321 86.177-128.201c14.387-23.926 18.037-45.086 18.037-45.086s109.907-10.481 138.813-14.095c28.906-3.612 39.164-90.519 39.164-90.519l-53.938-4.846s-136.288 15.886-189.913 63.993" fill="#fff" fill-rule="evenodd"/></mask><mask id="j" fill="#fff"><path d="m69.886 64.802c-12.05 10.812-69.538 195.627-69.538 195.627l31.198 23.127s68.808-99.321 86.177-128.201c14.387-23.926 18.037-45.086 18.037-45.086s109.907-10.481 138.813-14.095c28.906-3.612 39.164-90.519 39.164-90.519l-53.938-4.846s-136.288 15.886-189.913 63.993" fill="#fff" fill-rule="evenodd"/></mask><mask id="k" fill="#fff"><path d="m.104 25.276 30.488 22.381 11.042-31.181-21.91-15.678z" fill="#fff" fill-rule="evenodd"/></mask><mask id="l" fill="#fff"><path d="m.068 21.197c-4.166 27.382 186.938 115.029 186.938 115.029l22.576-22.671s-67.345-64.42-109.023-88.454c-15.62-9.007-48.892-24.204-72.973-24.204-14.221 0-25.235 5.299-27.518 20.3" fill="#fff" fill-rule="evenodd"/></mask><mask id="m" fill="#fff"><path d="m.068 21.197c-4.166 27.382 186.938 115.029 186.938 115.029l22.576-22.671s-67.345-64.42-109.023-88.454c-15.62-9.007-48.892-24.204-72.973-24.204-14.221 0-25.235 5.299-27.518 20.3" fill="#fff" fill-rule="evenodd"/></mask><mask id="n" fill="#fff"><path d="m127.491 81.64s-98.283 12.428-116.803 23.139c-8.601 4.975-14.123 22.997-5.727 26.282 2.95 1.157 6.488.857 10.63-2.082 3.773-2.679 3.003-7.574 13.03-7.997 19.159-.807 35.319.176 49.606 1.158 30.351 2.088 52.255 4.176 76.514-10.904 35.679-22.179 27.65-83.608 27.65-83.608l-40.764-26.696c-6.081 29.24-14.136 80.708-14.136 80.708" fill="#fff" fill-rule="evenodd"/></mask><mask id="o" fill="#fff"><path d="m13.188 22.186c-6.78 7.044-12.444 34.278-12.444 34.278l23.834 18.498-14.919 127.047 51.084 12.652 88.822 24.821 38.331-160.579 20.379-8.447s-1.878-20.189-9.664-32.816c-16.052-26.033-60.896-37.482-103.176-37.482-35.24 0-68.696 7.948-82.247 22.028" fill="#fff" fill-rule="evenodd"/></mask><mask id="p" fill="#fff"><path d="m13.188 22.186c-6.78 7.044-12.444 34.278-12.444 34.278l23.834 18.498-14.919 127.047 51.084 12.652 88.822 24.821 38.331-160.579 20.379-8.447s-1.878-20.189-9.664-32.816c-16.052-26.033-60.896-37.482-103.176-37.482-35.24 0-68.696 7.948-82.247 22.028" fill="#fff" fill-rule="evenodd"/></mask><mask id="q" fill="#fff"><path d="m13.188 22.186c-6.78 7.044-12.444 34.278-12.444 34.278l23.834 18.498-14.919 127.047 51.084 12.652 88.822 24.821 38.331-160.579 20.379-8.447s-1.878-20.189-9.664-32.816c-16.052-26.033-60.896-37.482-103.176-37.482-35.24 0-68.696 7.948-82.247 22.028" fill="#fff" fill-rule="evenodd"/></mask><mask id="r" fill="#fff"><path d="m40.267.884c-60.84 2.684-37.674 69.73-26.333 90.152 7.277 13.106 22.335 11.05 22.335 11.05s.979 20.992 5.87 30.076c3.849 7.151 42.039 7.261 34.592-19.892-6.707-24.457-2.604-39.55 4.03-57.851 6.539-18.039-15.592-53.562-39.443-53.558-.349 0-.702.008-1.051.023" fill="#fff" fill-rule="evenodd"/></mask><mask id="s" fill="#fff"><path d="m25.65 4.167c-10.906 9.486 6.583 15.013-12.064 20.194-25.085 6.97-12.009 40.218 18.471 34.098 11.882-2.386 13.816-12.468 24.749-3.147 11.542 9.841 17.339 6.016 24.226 2.19 4.204-2.333 8.814-4.668 15.384-3.897 7.726.908 11.902 4.951 14.78 14.507 1.893 6.28 6.646 3.871 7.892-.549.877-3.11-1.557-9.233 1.686-10.319 9.73-3.258 7.331 19.338 8.998 22.677 1.15 2.304 2.597 3.39 3.938 3.856 2.097.731 3.926-.054 3.926-.054s1.129-3.338 2.283-8.488c2.146-9.593 4.37-25.472-.485-37.786-5.526-14.018-13.073-21.765-24.034-26.056-8.73-3.419-17.632-2.778-25.758-2.138-8.205.647-15.616 1.294-21.252-2.24-6.721-4.213-17.74-7.004-27.285-7.004-6.387 0-12.113 1.248-15.455 4.156" fill="#fff" fill-rule="evenodd"/></mask><mask id="t" fill="#fff"><path d="m157.345 19.495-.983 57.264s-29.291 10.149-46.914 15.244c-20.268 5.861-27.546 8.027-52.658 12.664-4.242.784-10.93-.214-18.055-1.212-12.431-1.741-26.193-3.482-30.627 4.235-13.733 23.903-6.013 20.146 5.876 16.389 7.118-2.249 15.732-4.498 22.13-.811 17.764 10.242 102.71 11.371 141.441.316 7.949-2.268 13.951-5.05 17.025-8.373 21.144-22.839 10.324-114.559 10.324-114.559" fill="#fff" fill-rule="evenodd"/></mask><mask id="u" fill="#fff"><path d="m.429 36.585s2.069 17.471 45.986 17.942c46.213.496 47.144-17.578 47.144-17.578s-9.22-34.945-44.783-36.041c-.565-.017-1.126-.026-1.679-.026-35.712-.001-46.668 35.703-46.668 35.703" fill="#fff" fill-rule="evenodd"/></mask><g fill="none" fill-rule="evenodd"><path d="m51.651 662.903h838.397v-600.672h-838.397z" fill="#f4f4f4"/><g transform="translate(51 61.476)"><path d="m772.6553-104.644c-138.182-21.337-199.946-154.037-408.981 105.4s-142.819 346.427-312.903 390.571c-170.085 44.144-220.72 309.008-46.741 336.273 173.979 27.266 864.703 24.669 903.653-103.868 38.951-128.537 41.548-701.111-135.028-728.376" fill="#dcdcdc" mask="url(#a)"/><path d="m975.1982 94.3931c-11.7-86.082-146.714-149.311-277.848-22.072-131.133 127.238-303.814 280.444-441.439 209.035-137.626-71.41-314.202-105.167-309.009 37.652 5.194 142.819 785.504 186.963 886.775 124.642 101.272-62.321 159.698-215.527 141.521-349.257" fill="#c6c6c6" mask="url(#b)" transform="translate(0 245)"/><path d="m-28.399 35.892h878.057v-44.534h-878.057z" fill="#fbfbfb" mask="url(#c)"/></g><path d="m282.1831 124.9491c46.771 0 84.743 37.972 84.743 84.743s-37.972 84.743-84.743 84.743-84.743-37.972-84.743-84.743 37.972-84.743 84.743-84.743" fill="#127fbb"/><g transform="translate(197 124.476)"><path d="m83.8481-24.9009 1.901 110.154 99.276-.527s19.344-90.704-101.177-109.627" fill="#ffc43c" mask="url(#d)"/><path d="m176.2012 129.7681-90.452-44.515 92.541-4.256s8.918 30.555-2.089 48.771" fill="#41c8fa" mask="url(#e)"/></g><g transform="translate(0 .476)"><path d="m282.458 167.8428c22.544 0 40.847 18.303 40.847 40.847s-18.303 40.847-40.847 40.847-40.847-18.303-40.847-40.847 18.303-40.847 40.847-40.847" fill="#ededed"/><g fill="#fff"><path d="m414.935 378.683h20.012v-70.987h-20.012z"/><path d="m611.872 378.683h20.012v-210.621h-20.012z"/><path d="m808.808 378.683h20.014v-254.21h-20.014z"/><path d="m454.322 378.683h20.013v-92.936h-20.013z"/><path d="m651.258 378.683h20.014v-189.993h-20.014z"/><path d="m493.71 378.683h20.012v-108.089h-20.012z"/><path d="m690.647 378.683h20.012v-227.958h-20.012z"/><path d="m533.096 378.683h20.014v-154.65h-20.014z"/><path d="m730.034 378.683h20.013v-254.21h-20.013z"/><path d="m572.485 378.683h20.012v-144.248h-20.012z"/><path d="m769.422 378.683h20.012v-242.818h-20.012z"/></g><path d="m17.044 345.684h263.888v-119.612h-263.888z" fill="#222" opacity=".1"/><path d="m320.173 77.057h355.979v-62.652h-355.979z" fill="#222" opacity=".1"/><path d="m304.54 63.633h358.006v-62.925h-358.006z" fill="#ffac00"/><path d="m82.672 628.289h781.145v-130.004h-781.145z" fill="#fff"/><path d="m382.65 137.842h146.682v-7.649h-146.682z" fill="#fff"/><path d="m384.509 441.561h445.597v-7.649h-445.597z" fill="#fff"/><path d="m382.65 160.113h111.018v-7.649h-111.018z" fill="#fff"/><path d="m384.51 463.832h337.253v-7.649h-337.253z" fill="#fff"/><path d="m.597 331.064h264.569v-119.613h-264.569z" fill="#094670"/><path d="m331.127893 19.7651c-.549993 0-1-.445-1-.996 0-.552.443007-1.002.996007-1.004l301.908-1.396h.005c.55 0 1.000015.445 1.000015.996 0 .552-.443015 1.002-.995015 1.004l-301.91 1.396zm162.536007 20.562c-.548 0-.994-.441-1.000042-.99-.004958-.552.438042-1.004.990042-1.01l22.401-.23h.01c.547 0 .994.441 1.000042.99.004958.552-.438042 1.004-.990042 1.01l-22.401.23zm87.255 0c-.548 0-.994-.441-1.00006-.99-.00594-.552.43806-1.004.98906-1.01l52.118-.534h.011c.548 0 .994.441 1.00006.99.00594.552-.43706 1.004-.98906 1.01l-52.118.534zm-249.791.674c-.55 0-.997-.444-1.000015-.995-.002985-.553.442015-1.002.995015-1.005l131.334-.674h.005c.55 0 .997.444 1.000015.995.002985.552-.442015 1.002-.995015 1.005l-131.334.674zm-309.289 209.32c-.55 0-.997-.444-1.0000151-.994-.0029849-.553.4420151-1.003.9950151-1.006l193.747-.994h.005c.55 0 .997.444 1.000015.995.002985.552-.442015 1.002-.995015 1.005l-193.747.994zm162.536 20.562c-.548 0-.994-.441-1.00006-.99-.00594-.552.43806-1.004.99006-1.01l22.4-.23c.565-.006 1.004.437 1.01006.989.00594.553-.43806 1.005-.99006 1.011l-22.4.23zm-162.536.674c-.55 0-.997-.444-1.0000151-.995-.0029849-.552.4420151-1.002.9950151-1.005l131.334-.674h.005c.55 0 .997.444 1.000015.994.002985.553-.442015 1.003-.995015 1.006l-131.334.674zm0 21.495c-.55 0-1.000015-.445-1.000015-.996-.002985-.552.443015-1.002.996015-1.004l218.782-.994c.534-.021 1.001.443 1.004015.996.002985.552-.443015 1.002-.995015 1.004l-218.783.994z" fill="#fff"/><path d="m99.5800983 520.6563c-.5519983 0-1-.446-1-.999 0-.552.4460017-1 .9990017-1.001l740.348-.994h.001c.551 0 1.000002.446 1.000002.999 0 .552-.447002 1-.999002 1.001l-740.348.994zm-.000005-134.4083c-.5509933 0-1-.445-1-.996 0-.552.4440067-1.002.9960067-1.004l257.944-.994c.546.044 1.004007.444 1.004007.996s-.444014 1.002-.996007 1.004l-257.944.994z" fill="#878787"/><path d="m414.928198 403.4063c-.550998 0-1-.446-1-.998s.445002-1.001.998002-1.002l414.427-.994h.002c.551 0 1.000002.446 1.000002.997 0 .553-.445002 1.001-.998002 1.003l-414.427.994z" fill="#f7f7f7"/><path d="m99.5800983 555.4961c-.5519983 0-1-.446-1-.999 0-.552.4460017-1 .9990017-1.001l740.348-.994h.001c.551 0 1.000002.446 1.000002.999 0 .552-.447002 1-.999002 1.001l-740.348.994zm205.3657017-134.4092c-.543 0-.989-.436-1.000168-.981-.009832-.552.429168-1.008.981168-1.019l52.578-.994c.536.015 1.008.429 1.019168.981.009832.552-.429168 1.008-.981168 1.019l-52.577.994zm-205.3657067 0c-.5509933 0-.9979933-.445-1-.996-.0019933-.552.4440067-1.002.9960067-1.004l166.185-.64h.004c.551 0 .998.445 1.000007.996.001993.552-.444007 1.002-.996007 1.004l-166.185.64zm20.5249067 41.711c-.55 0-.997-.443-1.000015-.994-.002985-.552.442015-1.003.994015-1.006l38.428-.227h.006c.55 0 .997.444 1.000027.995.003973.551-.442027 1.003-.994027 1.005l-38.428.227z" fill="#878787"/><path d="m189.9121 475.6094c-.246 0-.492-.09-.686-.272l-13.726-12.926c-.393-.369-.421-.985-.064-1.39l12.393-14.032c.365-.413.997-.452 1.411-.087.414.366.453.997.088 1.411l-11.751 13.306 13.021 12.262c.401.378.42 1.011.042 1.414-.197.209-.462.314-.728.314" fill="#41c8fa"/><path d="m535.417 49.5889c-.246 0-.492-.09-.686-.272l-9.431-8.881c-.393-.37-.421-.985-.065-1.39l8.515-9.642c.368-.414.998-.452 1.412-.087s.453.997.088 1.411l-7.874 8.916 8.727 8.217c.402.378.42 1.011.043 1.414-.198.209-.463.314-.729.314" fill="#fff"/><path d="m201.4072 475.6094c-.157 0-.315-.037-.464-.114-.489-.257-.677-.862-.42-1.351l14.149-26.957c.256-.489.861-.678 1.35-.421s.677.861.42 1.35l-14.149 26.958c-.178.341-.526.535-.886.535" fill="#41c8fa"/><path d="m553.0391 30.0659-9.723 18.523" fill="#302800"/><path d="m543.3154 49.5889c-.156 0-.315-.037-.464-.115-.489-.256-.678-.861-.421-1.35l9.723-18.523c.257-.489.859-.679 1.35-.42.49.256.678.861.421 1.35l-9.722 18.523c-.179.341-.527.535-.887.535" fill="#fff"/><path d="m228.1196 475.6094c-.235 0-.471-.082-.662-.25-.413-.366-.453-.998-.087-1.412l11.751-13.306-13.021-12.261c-.402-.379-.421-1.012-.043-1.414.38-.402 1.012-.42 1.414-.043l13.726 12.925c.393.37.422.986.064 1.391l-12.392 14.032c-.198.224-.473.338-.75.338" fill="#41c8fa"/><path d="m561.6699 49.5889c-.235 0-.472-.083-.662-.25-.414-.366-.453-.998-.088-1.412l7.875-8.916-8.727-8.217c-.402-.378-.42-1.012-.043-1.413.38-.403 1.012-.421 1.415-.043l9.431 8.881c.393.37.421.986.065 1.391l-8.516 9.641c-.198.224-.474.338-.75.338" fill="#fff"/><path d="m101.2285 615.9053c-.235 0-.471-.082-.662-.25-.413-.366-.453-.998-.087-1.412l11.752-13.306-13.022-12.26c-.402-.378-.421-1.011-.043-1.414.379-.402 1.012-.42 1.414-.043l13.727 12.924c.393.37.421.986.064 1.391l-12.393 14.032c-.198.224-.473.338-.75.338" fill="#41c8fa"/><path d="m254.815898 462.7979c-.550998 0-.998998-.445-1-.997-.000998-.552.445002-1.001.997002-1.003l74.087-.227h.003c.551 0 .998.446 1.000002.998.000998.551-.445002 1-.997002 1.002l-74.087.227z" fill="#939393"/><path d="m914.3896 308.978c-.25 0-.49-.09-.67-.26-.21-.19-.33-.46-.33-.74 0-.25.09-.49.26-.67l1.35-1.48c.36-.39 1.02-.42 1.411-.06.409.37.439 1.01.069 1.41l-1.35 1.48c-.19.21-.46.32-.74.32m-5.399 5.91c-.241 0-.481-.09-.671-.26-.21-.19-.329-.46-.329-.74 0-.25.099-.49.269-.67l1.35-1.48c.35-.39 1.02-.42 1.41-.06.19.18.31.42.32.69s-.08.52-.26.72l-1.35 1.48c-.19.2-.46.32-.739.32m-5.391 5.91c-.25 0-.49-.09-.67-.26-.21-.19-.33-.46-.33-.74 0-.25.09-.49.26-.68l1.35-1.47c.36-.39 1.02-.42 1.41-.06.411.37.44 1 .07 1.41l-1.35 1.48c-.19.2-.46.32-.74.32m-5.399 5.91c-.25 0-.481-.1-.67-.27-.211-.19-.33-.46-.321-.74 0-.25.09-.48.26-.67l1.34-1.48c.36-.39 1.03-.42 1.42-.06.4.37.431 1.01.06 1.42l-1.35 1.47c-.19.21-.46.33-.739.33m-5.391 5.9c-.25 0-.49-.09-.67-.26-.21-.19-.33-.46-.33-.74 0-.25.09-.49.26-.67l1.35-1.48c.361-.39 1.02-.42 1.41-.06.411.37.44 1.01.07 1.41l-1.35 1.48c-.19.21-.46.32-.74.32m-5.399 5.91c-.25 0-.491-.09-.67-.26-.21-.19-.33-.46-.33-.74.009-.25.099-.49.269-.67l1.34-1.48c.36-.39 1.02-.42 1.42-.06.4.37.43 1 .06 1.41l-1.35 1.48c-.19.2-.46.32-.739.32m-5.391 5.91c-.25 0-.489-.09-.67-.26-.21-.19-.33-.46-.33-.74 0-.25.09-.49.261-.68l1.349-1.47c.361-.39 1.02-.43 1.41-.07.411.37.44 1.01.07 1.42l-1.35 1.47c-.19.21-.46.33-.74.33m-5.4 5.91c-.25 0-.49-.1-.669-.27-.21-.19-.331-.46-.331-.74 0-.25.1-.48.27-.67l1.34-1.48c.36-.39 1.02-.42 1.42-.06.4.37.43 1.01.06 1.41l-1.35 1.48c-.19.21-.46.33-.74.33m-.3296-38.6803c-.25 0-.49-.09-.681-.26l-1.469-1.35c-.21-.19-.33-.46-.33-.74 0-.25.089-.49.259-.68.361-.39 1.021-.42 1.41-.06l1.481 1.35c.41.37.439 1.01.07 1.41-.19.21-.461.33-.74.33m5.899 5.39c-.25 0-.489-.09-.67-.26l-1.479-1.35c-.2-.19-.32-.46-.32-.74 0-.25.09-.49.259-.67.361-.39 1.021-.42 1.411-.06l1.48 1.35c.41.37.43 1 .06 1.41-.19.21-.451.32-.741.32m5.911 5.4c-.25 0-.491-.09-.67-.26l-1.48-1.35c-.21-.19-.33-.46-.32-.74 0-.25.09-.49.26-.67.35-.39 1.02-.42 1.41-.07l1.48 1.35c.19.18.31.43.32.69.009.27-.081.53-.26.72-.191.21-.46.33-.74.33m5.91 5.39c-.25 0-.491-.09-.68-.26l-1.471-1.35c-.21-.19-.329-.46-.329-.74 0-.25.1-.49.26-.67.359-.39 1.029-.42 1.42-.06l1.47 1.35c.2.18.32.42.33.69.009.27-.08.52-.26.72-.19.21-.46.32-.74.32m5.91 5.4c-.25 0-.49-.09-.68-.26l-1.48-1.35c-.2-.19-.321-.46-.321-.74 0-.25.091-.49.261-.67.36-.4 1.02-.43 1.42-.07l1.47 1.35c.41.37.44 1.01.059 1.41-.179.21-.449.33-.729.33m5.899 5.39c-.25 0-.489-.09-.67-.26l-1.479-1.35c-.2-.19-.32-.46-.32-.74 0-.25.089-.49.259-.67.361-.39 1.021-.42 1.41-.06l1.481 1.34c.399.38.43 1.01.06 1.42-.19.21-.46.32-.741.32m5.91 5.4c-.25 0-.489-.09-.669-.26l-1.48-1.35c-.21-.19-.33-.46-.33-.74 0-.25.1-.49.26-.67.36-.4 1.03-.42 1.42-.07l1.48 1.35c.4.37.43 1.01.06 1.41-.19.21-.46.33-.741.33m5.911 5.39c-.25 0-.491-.09-.68-.26l-1.47-1.35c-.21-.19-.33-.46-.33-.74 0-.25.09-.49.26-.67.36-.39 1.019-.42 1.42-.06l1.47 1.35c.2.18.32.42.33.69.009.27-.08.52-.26.72-.191.21-.46.32-.74.32m-597.7103 1.4602c-.55 0-1-.44-1-.99 0-.27.1-.52.29-.71s.44-.3.71-.3l2-.01c.55 0 1 .45 1 1 0 .26-.1.52-.29.71s-.44.29-.7.29l-2 .01zm-7.99.04h-.01c-.55 0-1-.45-1-.99 0-.27.1-.52.29-.71s.44-.3.71-.3l2-.01c.55 0 1 .45 1 1s-.44 1-.99 1zm-8.01.04c-.55 0-1-.45-1-1s.44-1 1-1l2-.01c.55 0 1 .45 1 1s-.44 1-.99 1l-2 .01zm-8 .04c-.55 0-1-.45-1-1s.45-1 1-1l2-.01c.55 0 1 .45 1 .99 0 .27-.1.52-.29.71-.18.19-.44.3-.7.3l-2 .01zm-8 .04c-.55 0-1-.45-1-1 0-.26.1-.52.29-.7.19-.2.44-.3.71-.3l2-.01c.55 0 1 .45 1 .99 0 .56-.44 1.01-.99 1.01l-2 .01z" fill="#565656"/><path d="m304.8799 335.938h-.01c-.55 0-.99-.45-1-1l-.01-1.99c0-.27.1-.52.29-.71s.44-.3.71-.3c.55 0 1 .45 1 1l.01 2c0 .55-.44 1-.99 1zm.03 8c-.55 0-1-.45-1-.99l-.01-2.01c0-.55.45-1 1-1s1 .45 1 1l.01 2c0 .26-.1.51-.29.7s-.44.3-.7.3zm.05 8h-.01c-.55 0-1-.45-1-1l-.01-1.99c0-.56.45-1.01 1-1.01s1 .45 1 1l.01 2c0 .26-.1.51-.29.7s-.44.3-.7.3zm.03 8c-.55 0-1-.45-1-.99l-.01-2.01c0-.26.1-.51.29-.7s.44-.3.71-.3c.55 0 1 .45 1 1l.01 2c0 .26-.1.51-.29.7s-.44.3-.71.3zm.04 8h-.01c-.54 0-.99-.45-.99-.99l-.01-2c0-.27.1-.52.29-.71s.44-.3.7-.3c.56 0 1.01.45 1.01 1l.01 2c0 .26-.1.51-.29.7s-.44.3-.71.3zm-281.4503-178.5c-.27 0-.53-.11-.71-.3l-1.41-1.42c-.19-.19-.29-.44-.29-.71s.1-.52.29-.71c.38-.37 1.04-.37 1.42.01l1.41 1.42c.38.4.38 1.03-.01 1.42-.19.18-.44.29-.7.29m5.62 5.68c-.27 0-.52-.1-.71-.29l-1.4-1.43c-.19-.19-.3-.44-.29-.7 0-.27.1-.52.29-.71.38-.38 1.04-.37 1.42.01l1.4 1.42c.19.19.29.44.29.71 0 .26-.1.51-.29.7s-.44.29-.71.29m5.63 5.69c-.27 0-.52-.11-.71-.3l-1.41-1.42c-.18-.19-.29-.44-.28-.71 0-.27.1-.52.29-.71.38-.37 1.04-.37 1.41.01l1.41 1.42c.19.19.29.44.29.71s-.11.52-.3.71c-.18.18-.43.29-.7.29" fill="#565656"/><path d="m32.9097 188.938c-.23 0-.46-.08-.64-.23-.42-.35-.48-.98-.13-1.4l1.27-1.55c.34-.41 1-.47 1.41-.13.23.19.36.47.36.77 0 .23-.08.46-.23.64l-1.27 1.54c-.19.23-.47.36-.77.36m-5.1 6.17c-.23 0-.45-.08-.63-.23-.43-.35-.49-.98-.14-1.4l1.28-1.55c.33-.41.99-.47 1.4-.13.24.19.37.47.37.77 0 .23-.08.46-.23.64l-1.27 1.54c-.19.23-.48.36-.78.36m-5.09 6.17c-.23 0-.46-.08-.63-.23-.43-.35-.49-.98-.14-1.41l1.27-1.54c.34-.41 1-.47 1.41-.13.23.19.36.47.36.77 0 .23-.08.46-.22.64l-1.28 1.54c-.19.23-.47.36-.77.36m522.6612-40.8801c-.125 0-.252-.023-.374-.073l-1.854-.748c-.001 0-.001-.001-.001-.001l-.116-.047c-.512-.206-.759-.789-.553-1.301.207-.512.794-.76 1.301-.553l.113.045c.002.001.003.001.004.002l1.854.748c.513.207.76.79.554 1.302-.157.389-.532.626-.928.626m5.934 3.546c-.187 0-.375-.052-.543-.161-.433-.28-.577-.837-.35-1.287-.41-.25-.591-.767-.405-1.226.207-.514.794-.76 1.301-.554l.117.047c.001.001.002.001.003.001l.843.341c.278.112.49.341.58.626s.047.595-.115.846l-.592.912c-.191.295-.512.455-.839.455m-4.422 6.816c-.187 0-.375-.051-.543-.161-.464-.3-.596-.919-.295-1.383l1.085-1.673c.001-.002.003-.004.004-.006l.068-.105c.301-.463.92-.594 1.384-.292.463.301.594.921.292 1.383l-.068.104-1.087 1.677c-.192.296-.513.456-.84.456" fill="#565656"/><path d="m803.1055 74.541c-2.795 0-5.068 2.273-5.068 5.068 0 2.794 2.273 5.068 5.068 5.068 2.794 0 5.067-2.274 5.067-5.068 0-2.795-2.273-5.068-5.067-5.068m0 13.136c-4.449 0-8.068-3.619-8.068-8.068s3.619-8.068 8.068-8.068c4.448 0 8.067 3.619 8.067 8.068s-3.619 8.068-8.067 8.068" fill="#ffe599"/><path d="m830.1768 73.041c3.625 0 6.568 2.943 6.568 6.568s-2.943 6.568-6.568 6.568-6.567-2.943-6.567-6.568 2.942-6.568 6.567-6.568" fill="#ffac00"/><path d="m304.54 52.9858c5.875 0 10.646 4.771 10.646 10.647s-4.771 10.646-10.646 10.646c-5.876 0-10.647-4.77-10.647-10.646s4.771-10.647 10.647-10.647" fill="#ffe599"/><path d="m857.249 74.541c-2.795 0-5.068 2.273-5.068 5.068 0 2.794 2.273 5.068 5.068 5.068s5.069-2.274 5.069-5.068c0-2.795-2.274-5.068-5.069-5.068m0 13.136c-4.449 0-8.068-3.619-8.068-8.068s3.619-8.068 8.068-8.068 8.069 3.619 8.069 8.068-3.62 8.068-8.069 8.068" fill="#a7a7a7"/><path d="m286.1709 414.3301c-3.071 0-5.569 2.498-5.569 5.568s2.498 5.568 5.569 5.568c3.07 0 5.568-2.498 5.568-5.568s-2.498-5.568-5.568-5.568m0 13.136c-4.173 0-7.569-3.395-7.569-7.568s3.396-7.568 7.569-7.568 7.568 3.395 7.568 7.568-3.395 7.568-7.568 7.568m577.6465 62.2087c-4.748 0-8.61 3.862-8.61 8.61s3.862 8.611 8.61 8.611 8.61-3.863 8.61-8.611-3.862-8.61-8.61-8.61m0 19.221c-5.851 0-10.61-4.76-10.61-10.611 0-5.85 4.759-10.61 10.61-10.61s10.61 4.76 10.61 10.61c0 5.851-4.759 10.611-10.61 10.611" fill="#41c8fa"/><path d="m479.1011 34.4331c-3.07 0-5.568 2.498-5.568 5.568s2.498 5.568 5.568 5.568 5.568-2.498 5.568-5.568-2.498-5.568-5.568-5.568m0 13.136c-4.173 0-7.568-3.395-7.568-7.568s3.395-7.568 7.568-7.568 7.568 3.395 7.568 7.568-3.395 7.568-7.568 7.568m-309.289 217.42c-3.07 0-5.568 2.498-5.568 5.568s2.498 5.568 5.568 5.568 5.568-2.498 5.568-5.568-2.498-5.568-5.568-5.568m0 13.136c-4.173 0-7.568-3.395-7.568-7.568s3.395-7.568 7.568-7.568 7.568 3.395 7.568 7.568-3.395 7.568-7.568 7.568" fill="#ffe599"/><path d="m750.084 798.6621c0 36.936-76.2 66.923-170.058 66.923-93.857 0-170.056-29.987-170.056-66.923 0-36.937 76.199-66.923 170.056-66.923 93.858 0 170.058 29.986 170.058 66.923z" fill="#222" opacity=".1"/><path d="m539.5957 865.5849c0 16.235-33.494 29.415-74.748 29.415-41.255 0-74.748-13.18-74.748-29.415s33.493-29.416 74.748-29.416c41.254 0 74.748 13.181 74.748 29.416" fill="#222" opacity=".1"/><path d="m706.6143 678.3799s-13.418 17.279-14.423 73.959c-1.006 56.68 11.646 78.478 11.646 78.478l-38.349 4.726s17.452-24.377 16.245-81.487c-1.206-57.109-14.516-76.136-14.516-76.136z" fill="#d3d3d3"/></g><path d="m11.1592 67.498c13.141-6.435 22.187-33.012 24.306-48.357 3.28-23.781.009-34.183-11.984-38.662-11.105-4.147-26.826 30.454-29.363 50.922-1.811 14.609.499 44.2 17.041 36.097" fill="#bbb" mask="url(#f)" transform="translate(665 677.476)"/><g transform="translate(462 507.476)"><path d="m371.0322 75.4336c.435 26.493-20.718 110.014-138.815 106.702-118.44-3.32-147.778-66.959-147.838055-111.107-.059945-43.683 49.005055-71.574 139.613055-70.639 119.247 1.231 146.561 45.791 147.04 75.044" fill="#d8d8d8"/><path d="m21.024 315.17-20.105 34.582 35.903 10.256 12.254-31.665z" fill="#ff6e42"/></g><path d="m36.3906 16.1621s-3.735 19.644-12.705 26.725c-8.97 7.082 28.834-3.017 28.834-3.017l-3.661-30.038z" fill="#ff4420" mask="url(#g)" transform="translate(462 822.476)"/><path d="m445.4565 542.2094c-11.242 40.403 34.465 36.485 34.465 36.485s154.533 67.417 205.187 68.904c59.272 1.739 98.203-48.78 98.203-48.78l8.016-34.732-110.001-6.201s-216.599-84.932-235.87-15.676" fill="#035ca4"/><path d="m140.0791 79.7793s52.911 4.34 92.435-54.334c34.366-51.02 117.645 21.152 90.992 51.766-92.024 105.69-183.427 2.568-183.427 2.568" fill="#004c99" mask="url(#h)" transform="translate(443 514.476)"/><path d="m788.7363 572.1313s-10.257 86.906-39.163 90.52c-28.906 3.613-138.814 14.094-138.814 14.094s-3.649 21.16-18.037 45.085c-17.369 28.881-86.176 128.202-86.176 128.202l-31.198-23.128s57.488-184.814 69.537-195.626c53.625-48.108 189.914-63.994 189.914-63.994z" fill="#035ca4"/><g fill="#004d9b" transform="translate(475 566.476)"><path d="m294.3555 9.7002c-1.427 15.709-24.435 7.424-46.535 34.052-28.386 34.2-41.763 33.131-67.643 38.045-44.715 8.489-56.544-.272-62.116 16.036-9.488 27.768-32.185 117.649-76.513 147.512s-77.676 42.393-43.992 56.041c33.683 13.647 148.091-85.371 159.125-124.281s24.682-46.461 86.822-57.204c62.141-10.744 85.951-3.194 92.92-46.75s-39.655-90.014-42.068-63.451" mask="url(#i)"/><path d="m-28.6724 124.3369c-22.903 48.93 39.709 57.584 39.709 57.584s34.727-34.68 85.219-60.187c50.492-25.506 74.375-65.801 7.746-67.883s-105.74 12.945-132.674 70.486" mask="url(#j)"/></g><g transform="translate(628 529.476)"><path d="m205.0322 53.4336c.435 26.493-20.857 113.347-138.815 106.702-71.911-4.051-62.194-29.155-35.829-26.223 32.835 3.655 50.729-61.963 129.809-70.971 31.823-3.624 32.241-38.012 18.71-47.263-13.377-9.144-17.94-19.571-7.615-13.338 25.555 15.432 33.484 35.45 33.74 51.093" fill="#f5f5f5"/><path d="m21.3154 149.3945c-8.387 0-14.833-2.865-15.244-3.053-.754-.343-1.086-1.23-.744-1.984.342-.755 1.23-1.089 1.985-.747.143.064 14.494 6.409 27.564-.417 13.148-6.866 24.324-17.238 36.155-28.22 12.215-11.338 26.059-24.187 44.255-35.081 11.901-7.125 25.253-9.826 37.032-12.21 9.492-1.921 18.457-3.734 24.923-7.555 17.641-10.423 11.518-34.983 11.454-35.23-.207-.802.273-1.62 1.075-1.828.811-.211 1.619.272 1.828 1.073.071.269 6.769 26.987-12.832 38.567-6.9 4.079-16.106 5.941-25.852 7.914-11.544 2.335-24.627 4.983-36.087 11.843-17.926 10.733-31.057 22.919-43.755 34.705-11.984 11.122-23.302 21.628-36.808 28.682-5.114 2.67-10.327 3.541-14.949 3.541" fill="#e6e6e6"/><path d="m19.725 117.798-19.62 24.479 30.487 22.379 11.042-31.18z" fill="#ff6e42"/></g><path d="m1.628 17.752 29.846 17.221-12.777 18.815-29.514-13.008z" fill="#ff4420" mask="url(#k)" transform="translate(628 646.476)"/><g transform="translate(445 538.476)"><path d="m197.1494 148.0185s5.227 25.414-3.35 44.073c-7.408 16.116 3.534 18.54 3.534 18.54l51.381-78.075-30.555-12.732s-4.438 2.118-14.29 14.782c-7.374 9.477-6.72 13.412-6.72 13.412" fill="#4a4d50"/><path d="m.0684 21.1963c-4.167 27.383 186.937 115.029 186.937 115.029l22.577-22.671s-67.345-64.42-109.023-88.454c-24.844-14.326-94.343-44.307-100.491-3.904" fill="#035ca4"/></g><g transform="translate(445 538.476)"><path d="m81.9287 18.0449c59.028 36.16 112.272 117.658 112.272 117.658l22.328-19.873s-66.136-93.752-87.25-110.024c-48.331-37.246-82.2-9.108-47.35 12.239" fill="#046eb2" mask="url(#l)"/><path d="m34.7246-58.1182c-9.562 82.156-18.761 80.255 117.43 184.483 136.191 104.227-16.676 84.078-92.415 24.32-24.492-19.324-79.439-59.472-86.59-97.281-14.962-79.113 68.274-169.072 61.575-111.522" fill="#004b97" mask="url(#m)"/></g><g transform="translate(499 404.476)"><path d="m155.582 249.0547c-.389 0-.777-.15-1.071-.45-75.053-76.621-130.166-98.913-130.714-99.129-.771-.305-1.149-1.176-.845-1.946.306-.771 1.177-1.148 1.946-.845.554.219 56.261 22.748 131.755 99.82.58.592.571 1.542-.021 2.121-.292.286-.671.429-1.05.429" fill="#003d7c"/><path d="m141.627.9321 40.764 26.696s8.029 61.429-27.65 83.608c-35.677 22.179-66.262 7.222-126.12 9.746-10.026.423-9.257 5.318-13.03 7.997-4.142 2.939-7.68 3.239-10.63 2.082-8.396-3.285-2.875-21.307 5.727-26.282 18.52-10.712 116.803-23.139 116.803-23.139s8.055-51.468 14.136-80.708" fill="#ff6e42"/></g><path d="m153.4277 8.1162s.885 78.346-8.558 90.484c-9.44 12.14-29.336 14.499-64.74 20.57-35.406 6.069-84.41-20.182-66.202 14.212 18.209 34.394 132.292 3.996 144.431-22.979 12.139-26.976 16.86-82.614 14.163-99.811-2.698-17.197-15.933-39.683-19.094-2.476" fill="#ff4420" mask="url(#n)" transform="translate(499 404.476)"/><path d="m646.6592 549.4858 51.084 12.651 88.821 24.821 38.331-160.579 20.38-8.447s-1.878-20.189-9.664-32.816c-29.431-47.731-155.613-46.428-185.424-15.454-6.779 7.044-12.443 34.278-12.443 34.278l23.834 18.498z" fill="#ffd75d"/><g fill="#ffac00" transform="translate(637 347.476)"><path d="m128.2061 242.207c22.955-69.754 22.606-149.066 22.606-149.066l27.722-10.946 2.858 160.835s-76.905 71.244-53.186-.823" mask="url(#o)"/><path d="m79.0693 227.5215c35.704-17.559 93.359-10.036 106.438-32.239s-45.926-24.028-88.812-13.687c-15.967 3.851-72.745 3.514-94.962 15.072-37.455 19.485-5.238 71.46 77.336 30.854" mask="url(#p)"/><path d="m109.5312-20.894c23.902 9.849 18.867 35.233-4.19 46.761-23.06 11.529-59.73 23.373-62.826 2.847-3.095-20.527 35.638-62.537 67.016-49.608" mask="url(#q)"/></g><g transform="translate(446 234.476)"><path d="m184.5781 440.3437c-.193 0-.391-.037-.581-.117-6.029-2.537-148.082-62.674-183.512-109.164-.503-.659-.376-1.6.283-2.103.66-.502 1.601-.376 2.102.284 34.95 45.858 180.821 107.599 182.291 108.217.764.321 1.122 1.201.801 1.965-.241.573-.798.918-1.384.918" fill="#003d7c"/><path d="m216.5537 187.4121c-.07 0-.142-.005-.214-.015-.82-.117-1.39-.877-1.273-1.697l3.391-23.785c.118-.82.87-1.391 1.698-1.273.82.117 1.389.876 1.273 1.697l-3.392 23.785c-.107.748-.749 1.288-1.483 1.288" fill="#f9940a"/><path d="m268.2666.8838c24.245-1.069 47.129 35.232 40.494 53.535-6.634 18.302-10.736 33.394-4.029 57.851 7.446 27.153-30.743 27.043-34.593 19.892-4.891-9.084-5.869-30.075-5.869-30.075s-15.059 2.055-22.336-11.051c-11.341-20.422-34.507-87.468 26.333-90.152" fill="#ff6e42"/></g><path d="m31.9893 123.6001c15.295 3.431 18.984-25.374 18.984-25.374s-5.731 3.187-14.993 3.987c-19.511 1.685-21.665 17.421-3.991 21.387" fill="#ff3313" mask="url(#r)" transform="translate(674 234.476)"/><g transform="translate(402 224.476)"><path d="m291.2422 446.9795c-6.29-5.377-64.286 69.936-50.909 77.652 6.163 3.555 58.229-71.397 50.909-77.652" fill="#2e3032"/><path d="m.2773 659.6094s18.756 8.684 35.289 8.682c19.451-.003 65.671-9.232 65.671-9.232l2.21-32.034s-9.46 9.78-24.679 7.862c-10.077-1.269-15.498-7.862-15.498-7.862s-34.252 21.041-51.434 23.272c-13.507 1.755-11.559 9.312-11.559 9.312" fill="#4a4d50"/><path d="m308.416 53.605c7.727.908 11.902 4.951 14.78 14.507 1.893 6.28 6.646 3.871 7.892-.549.877-3.11-1.558-9.233 1.686-10.319 9.73-3.258 7.33 19.338 8.997 22.677 1.151 2.304 2.598 3.39 3.939 3.856 2.097.731 3.926-.054 3.926-.054s1.13-3.338 2.283-8.488c2.145-9.593 4.37-25.472-.485-37.787-5.526-14.017-13.074-21.764-24.034-26.055-17.546-6.871-35.792 2.655-47.01-4.378-11.219-7.032-34.403-10.101-42.741-2.848-10.905 9.486 6.584 15.013-12.063 20.194-25.085 6.97-12.009 40.218 18.471 34.098 11.881-2.386 13.816-12.468 24.749-3.147 18.587 15.847 22.275-3.743 39.61-1.707" fill="#4b4f51"/></g><path d="m120.3018 5.811c.784 10.664 13.805 38.289 2.784 36.239-19.316-3.594-15.894-.015-29.366 7.419-22.553 12.445-14.736-5.486-28.745-6.225-11.898-.627-47.014 24.526-64.614 2.5-11.571-14.481-17.524-54.964 6.782 25.183 10.184 33.584 60.642 19.757 74.328 3.213 13.685-16.544 3.21-18.462 27.737 2.897 24.528 21.359 43.559 21.819 44.477-25.749.513-26.612-34.761-64.234-33.383-45.477" fill="#252525" mask="url(#s)" transform="translate(614 224.476)"/><g transform="translate(511 418.476)"><path d="m87.567 101.399-86.829 3.9 128.186 41.317 89.511-1.839z" fill="#3b3b3b"/><path d="m283.3457 19.4951 47.559-18.843s10.819 91.719-10.325 114.559c-3.074 3.322-9.076 6.104-17.025 8.373-38.73 11.055-123.677 9.926-141.44-.316-17.083-9.847-49.962 22.636-28.006-15.579 6.975-12.14 37.04-.872 48.681-3.022 25.113-4.638 32.391-6.803 52.659-12.664 17.623-5.096 46.913-15.244 46.913-15.244z" fill="#ff6e42"/></g><path d="m196.4619-1.2368c-4.74 9.411 19.49 93.004-30.694 115.427-29.037 12.974-81.788 13.371-106.156 9.317-17.745-2.954-7.712-9.817-24.893-8.316-37.114 3.24-35 23.165 32.31 25.606 114.608 4.155 134.996 1.192 144.961-62.16 9.967-63.352-1.092-108.535-15.528-79.874" fill="#ff4420" mask="url(#t)" transform="translate(637 418.476)"/><g transform="translate(400 396.476)"><path d="m240.0654 170.4512c-.157 0-.313-.024-.464-.073l-127.503-41.444c-.788-.255-1.219-1.102-.963-1.89.256-.787 1.1-1.219 1.891-.963l127.26 41.364 88.541-2.028c.842.013 1.514.638 1.534362 1.466.017638.828-.638362 1.514-1.466362 1.534l-88.796 2.034z" fill="#252525"/><path d="m88.251 51.37 23.488 75.93 128.185 41.316-20.804-73.868z" fill="#252525"/><path d="m240.2109 169.7334c-.654 0-1.256-.431-1.442-1.092l-20.625-72.914-128.854-42.757c-.786-.26-1.212-1.11-.951-1.896.26-.786 1.105-1.212 1.896-.951l129.608 43.007c.472.158.835.538.971 1.016l20.841 73.679c.226.797-.238 1.626-1.035 1.851-.137.039-.273.057-.409.057" fill="#4b4f51"/><path d="m242.0049 352.958c-.153 0-.31-.023-.464-.073-1.715-.559-2.901-1.684-3.432-3.254-2.108-6.246 6.21-18.742 19.958-38.613 2.903-4.198 5.905-8.538 8.807-12.872 16.552-24.722 24.933-24.964 25.813-24.94.827.046 1.461.753 1.416 1.58-.044.808-.727 1.445-1.525 1.418-.252.016-7.899.741-23.212 23.611-2.914 4.354-5.923 8.703-8.833 12.909-10.479 15.148-21.315 30.811-19.582 35.947.154.453.464 1.017 1.518 1.36.788.257 1.219 1.104.963 1.891-.206.634-.794 1.036-1.427 1.036m-201.484 144.322c-3.749 0-7.489-.116-11.176-.377-15.083-1.066-27.369-7.696-27.884-7.977-.727-.398-.994-1.308-.598-2.035.397-.728 1.309-.996 2.036-.598.12.065 12.25 6.6 26.658 7.618 33.987 2.398 73.082-7.651 73.473-7.753.801-.212 1.621.272 1.829 1.073.209.802-.271 1.622-1.073 1.83-.353.092-31.954 8.219-63.265 8.219" fill="#222"/><path d="m386.208 45.7339c-.25 0-.499-.062-.723-.186-.354-.194-.614-.523-.722-.913-.322-1.156-7.782-28.474-1.349-43.063.333-.759 1.218-1.101 1.978-.768.757.335 1.101 1.22.766 1.978-5.187 11.767-.343 33.671 1.112 39.562l4.799-1.456c.792-.238 1.631.207 1.871 1 .241.793-.207 1.63-1 1.871l-6.296 1.911c-.143.043-.29.064-.436.064" fill="#f9940a"/><path d="m241.4287 454.5849s2.069 17.471 45.986 17.942c46.213.496 47.145-17.578 47.145-17.578s-9.221-34.945-44.783-36.041c-37.048-1.142-48.348 35.677-48.348 35.677" fill="#f5f5f5"/></g><path d="m-14.6299-14.9082s38.148 15.822 58.834-.824c20.687-16.645 26.826-34.776 26.826-34.776s12.588 39.079-9.967 61.032c-8.131 7.913-44.539 21.356-59.297 7.177-14.759-14.177-16.396-32.609-16.396-32.609" fill="#d3d3d3" mask="url(#u)" transform="translate(641 814.476)"/><g transform="translate(38 72.476)"><path d="m677.8457 766.8789c-.553 0-1.085-.307-1.347-.837-2.726-5.531-7.25-9.58-7.295-9.62-.62-.55-.677-1.497-.128-2.117.549-.621 1.495-.677 2.117-.13.202.18 5.001 4.463 7.998 10.541.366.743.06 1.642-.683 2.009-.213.104-.439.154-.662.154" fill="#fff"/><path d="m560.5439 529.2422c-.58 0-1.132-.337-1.377-.902-.33-.761.019-1.644.778-1.974 47.838-20.766 120.475-30.471 121.203-30.566.821-.106 1.575.47 1.683 1.292.108.821-.471 1.574-1.292 1.682-.724.095-72.952 9.747-120.398 30.344-.196.084-.398.124-.597.124" fill="#003d7c"/><path d="m504.8799 93.708c-.47 0-.87-.32-.97-.77-.07-.26-.02-.53.12-.76s.36-.39.62-.45c.5-.11.99-.23 1.49-.35l.46-.11h.02c.53-.11 1.06.23 1.18.76.059.25.019.52-.12.75-.15.22-.37.38-.63.44-.65.16-1.29.31-1.941.46-.079.02-.159.03-.229.03zm-7.76 1.93c-.46 0-.85-.31-.97-.75-.14-.53.18-1.08.72-1.22.51-.13 1.02-.26 1.53-.39l.41-.11c.52-.14 1.08.2 1.21.72.03.09.04.17.03.25 0 .46-.3.85-.74.97h-.01l-.03.01c-.63.16-1.26.32-1.9.49-.08.02-.17.03-.25.03zm-7.72 2.11c-.44 0-.831-.3-.96-.72-.07-.26-.04-.53.09-.76.13-.24.34-.41.6-.48.64-.18 1.28-.37 1.93-.55.52-.14 1.09.18 1.23.7.029.09.04.18.04.27 0 .44-.3.84-.73.96-.64.18-1.281.36-1.92.54-.09.03-.18.04-.28.04zm-7.66 2.29c-.44 0-.82-.28-.95-.7-.08-.25-.06-.52.069-.76.121-.24.331-.41.581-.49.64-.2 1.28-.4 1.919-.59.531-.16 1.091.14 1.25.66.031.1.041.2.041.3 0 .44-.28.82-.7.95-.01 0-.02 0-.02.01-.64.19-1.26.39-1.89.58-.1.03-.2.04-.3.04zm-7.6 2.49c-.43 0-.81-.28-.95-.68-.081-.25-.07-.53.05-.76.119-.24.32-.42.579-.51.631-.21 1.25-.43 1.891-.64h.01c.51-.17 1.09.12 1.26.63.04.11.05.21.05.32 0 .43-.27.81-.68.95l-1.89.63c-.101.04-.21.06-.32.06zm-7.54 2.67c-.41 0-.79-.26-.93-.65-.101-.25-.09-.52.02-.77.11-.24.31-.42.56-.52.63-.23 1.25-.46 1.88-.68l.01-.01c.51-.18 1.1.1 1.28.6.04.11.06.23.06.35 0 .42-.27.79-.661.93-.669.25-1.269.47-1.869.69-.11.04-.23.06-.35.06zm-7.46 2.88c-.41 0-.78-.25-.93-.63-.1-.25-.1-.52.01-.77.1-.24.3-.43.55-.53.62-.25 1.24-.5 1.86-.74.01-.01.01-.01.02-.01.5-.19 1.08.07 1.28.57.05.12.07.24.07.37 0 .41-.25.78-.64.93-.62.24-1.23.49-1.85.73-.12.05-.24.08-.37.08zm-7.38 3.07c-.4 0-.76-.23-.92-.6-.11-.24-.11-.51-.01-.76s.28-.45.53-.55c.61-.27 1.22-.53 1.83-.79.01 0 .01-.01.02-.01.49-.2 1.1.04 1.31.53.05.13.08.26.08.39 0 .4-.24.76-.6.92 0 0-.01 0-.01.01-.02 0-.04.01-.06.02-.59.25-1.18.5-1.78.76-.12.06-.26.08-.39.08zm-7.29 3.29c-.39 0-.74-.22-.91-.57-.11-.25-.12-.52-.03-.77s.27-.45.51-.56c.55-.26 1.19-.56 1.82-.85.49-.23 1.11.01 1.33.49.06.13.09.27.09.41 0 .39-.22.75-.58.92-.61.28-1.21.56-1.81.84-.13.06-.28.09-.42.09zm-7.19 3.5c-.38 0-.72-.21-.89-.54-.13-.24-.15-.52-.06-.77.08-.25.26-.46.5-.58.56-.28 1.14-.58 1.79-.9.48-.24 1.1-.03 1.34.45.07.14.1.29.1.44.01.38-.21.73-.55.9-.6.3-1.19.6-1.78.9-.14.07-.29.1-.45.1zm-7.08 3.72c-.37 0-.7-.2-.88-.52-.26-.48-.08-1.09.4-1.35.57-.32 1.17-.64 1.77-.96.47-.25 1.1-.06 1.35.41.08.15.12.31.12.48-.01.36-.21.7-.53.87-.59.32-1.17.63-1.75.95-.15.08-.31.12-.48.12zm-6.96 3.95c-.35 0-.68-.19-.86-.5-.14-.23-.18-.5-.11-.75.07-.26.23-.48.46-.62.58-.33 1.16-.67 1.74-1.01.46-.26 1.1-.09 1.36.37.09.15.14.32.14.5 0 .35-.19.69-.5.86-.6.35-1.18.69-1.72 1.01-.16.09-.33.14-.51.14zm-6.83 4.16c-.34 0-.66-.17-.84-.46-.3-.46-.16-1.08.31-1.38.58-.37 1.15-.73 1.7-1.07.46-.28 1.1-.13 1.38.32.09.16.15.34.15.52 0 .35-.17.67-.47.86-.57.35-1.13.71-1.69 1.06-.16.1-.35.15-.54.15zm-6.67 4.4c-.33 0-.64-.16-.83-.43-.31-.46-.19-1.08.26-1.39.65-.45 1.18-.8 1.66-1.13.45-.3 1.09-.17 1.39.28.11.16.17.35.17.55 0 .34-.17.65-.44.83-.5.33-1.02.69-1.65 1.12-.17.11-.36.17-.56.17zm-6.53 4.63c-.31 0-.61-.15-.8-.4-.16-.22-.23-.48-.18-.75.04-.26.18-.5.39-.65.58-.43 1.11-.82 1.62-1.19.43-.31 1.09-.2 1.4.23.12.17.19.37.19.57 0 .33-.15.63-.42.82-.56.41-1.12.82-1.6 1.18-.18.12-.38.19-.6.19zm-6.35 4.86c-.3 0-.59-.13-.78-.37-.34-.43-.27-1.07.16-1.41.52-.41 1.05-.83 1.58-1.24.42-.33 1.07-.25 1.4.17.14.18.22.39.21.62 0 .31-.14.59-.38.79-.53.41-1.05.81-1.57 1.23-.17.14-.39.21-.62.21zm-6.16 5.1c-.29 0-.57-.13-.76-.35-.36-.42-.31-1.05.11-1.41.5-.43 1.01-.87 1.53-1.3.4-.35 1.07-.29 1.41.12.15.18.23.4.23.63.01.3-.12.58-.35.78-.45.38-.98.83-1.52 1.29-.18.15-.41.24-.65.24zm-5.97 5.33c-.27 0-.54-.12-.73-.32-.18-.2-.28-.45-.27-.72s.13-.52.32-.7c.5-.46 1-.92 1.48-1.36.39-.35 1.06-.32 1.42.07.16.18.26.42.26.67 0 .28-.12.55-.33.74-.51.47-.99.91-1.46 1.35-.19.17-.43.27-.69.27zm-5.75 5.55c-.26 0-.51-.1-.7-.28-.39-.4-.39-1.03-.01-1.42.47-.47.95-.95 1.43-1.42.38-.37 1.04-.37 1.41.01.19.19.29.44.29.71s-.11.52-.3.71c-.5.5-.97.96-1.41 1.4-.19.19-.44.29-.71.29zm-5.52 5.79c-.25 0-.49-.09-.67-.26-.2-.18-.31-.43-.33-.69-.01-.27.08-.53.27-.72.38-.42.76-.84 1.15-1.25l.21-.23c.36-.39 1.03-.41 1.41-.05.21.19.32.45.32.72 0 .26-.09.51-.27.7-.5.53-.94 1.01-1.35 1.46-.19.2-.46.32-.74.32zm-5.27 6.01c-.24 0-.47-.08-.65-.23-.42-.36-.47-.99-.12-1.41.44-.52.87-1.03 1.3-1.53.35-.4 1.01-.46 1.41-.11.23.19.35.46.35.76 0 .23-.08.47-.24.65-.42.49-.86 1-1.29 1.52-.19.22-.47.35-.76.35zm-5.02 6.23c-.22 0-.43-.07-.61-.2-.21-.17-.34-.4-.38-.67-.03-.26.04-.53.2-.74.45-.57.85-1.09 1.24-1.58.33-.42.98-.5 1.4-.17.24.19.38.48.38.79 0 .22-.07.44-.21.61l-.29.37c-.31.4-.62.8-.93 1.2-.2.25-.48.39-.8.39zm-4.73 6.45c-.21 0-.41-.07-.58-.19-.22-.15-.36-.38-.41-.64s.01-.53.17-.75c.34-.48.7-1 1.15-1.63.01 0 .01 0 .01-.01.31-.43.96-.54 1.4-.23.26.19.41.5.41.82 0 .21-.06.41-.18.58-.32.44-.74 1.02-1.16 1.62-.18.27-.49.43-.81.43zm-4.45 6.65c-.19 0-.38-.06-.54-.16-.46-.3-.6-.92-.3-1.38.31-.5.66-1.03 1.09-1.69.29-.45.93-.59 1.38-.29.29.18.46.5.45.84 0 .19-.05.38-.16.54-.38.59-.76 1.18-1.08 1.67-.18.29-.5.47-.84.47zm-4.14 6.84c-.17 0-.34-.05-.49-.13-.23-.14-.4-.35-.47-.61s-.04-.53.1-.76c.3-.52.63-1.09 1.01-1.74.27-.45.91-.62 1.37-.35.3.18.49.52.49.87 0 .18-.05.35-.14.5-.36.62-.69 1.18-1 1.72-.18.31-.51.5-.87.5zm-3.81 7.03c-.16 0-.31-.04-.45-.11-.24-.12-.42-.33-.5-.58-.08-.26-.06-.53.06-.76.33-.66.67-1.3.93-1.79v-.01c.26-.46.88-.66 1.35-.41.33.18.54.52.53.9 0 .16-.04.31-.11.45-.3.56-.61 1.16-.92 1.77-.17.33-.51.54-.89.54zm-3.47 7.21c-.14 0-.28-.03-.41-.09-.5-.23-.73-.82-.5-1.32.24-.55.54-1.19.84-1.83.22-.49.84-.71 1.33-.49.35.17.58.53.57.92 0 .14-.03.28-.09.41-.27.59-.55 1.2-.83 1.81-.16.36-.52.59-.91.59zm-3.12 7.36c-.12 0-.24-.02-.36-.07-.51-.2-.77-.78-.57-1.29.24-.59.48-1.2.75-1.87.2-.5.8-.75 1.31-.55.37.15.61.51.62.92 0 .13-.02.26-.08.39-.25.61-.5 1.23-.74 1.84-.15.38-.51.63-.93.63zm-2.74 7.52c-.11 0-.21-.02-.31-.05-.53-.18-.81-.75-.64-1.27.19-.56.42-1.23.66-1.9.18-.51.76-.8 1.27-.62.41.14.68.53.67.96 0 .11-.02.21-.05.32-.24.67-.45 1.29-.65 1.88-.14.4-.52.68-.95.68zm-2.35 7.64c-.09 0-.18-.01-.27-.03-.25-.07-.47-.24-.6-.48-.13-.23-.16-.5-.09-.75.18-.64.36-1.29.55-1.94.15-.52.73-.83 1.25-.68.42.13.72.52.71.97 0 .09-.01.18-.04.27-.19.65-.37 1.29-.54 1.91-.12.43-.52.73-.97.73zm-1.93 7.76c-.08 0-.15 0-.22-.02-.54-.12-.88-.65-.76-1.19.14-.67.3-1.33.45-1.96.12-.54.67-.87 1.2-.75.45.11.77.51.77.98 0 .07-.01.15-.03.22-.14.6-.28 1.24-.44 1.94-.1.45-.51.78-.97.78zm-1.52 7.86c-.05 0-.11-.01-.16-.02-.26-.04-.49-.18-.65-.4s-.22-.48-.17-.74c.12-.73.23-1.38.33-1.99h.01c.1-.54.62-.9 1.15-.81.48.09.83.5.83.98 0 .06-.01.12-.01.17v.01c-.01.02-.01.05-.02.07-.12.68-.22 1.3-.32 1.89-.08.49-.49.84-.99.84zm-1.06 7.93c-.03 0-.06 0-.1-.01-.55-.06-.95-.55-.89-1.1.07-.68.15-1.36.22-2 .07-.54.56-.94 1.11-.87.5.06.88.48.89.98 0 .04-.01.08-.01.13-.07.6-.15 1.24-.22 1.97-.06.51-.48.9-1 .9zm-.58 7.97h-.04c-.27-.01-.52-.12-.7-.32-.18-.19-.27-.45-.26-.72.03-.7.06-1.36.1-2.01.03-.55.51-.99 1.06-.94.53.03.94.47.94 1v.06c-.04.64-.07 1.3-.1 1.98-.02.53-.46.95-1 .95zm-.09 8c-.54 0-.98-.43-1-.97-.01-.64-.02-1.3-.02-2.02 0-.27.1-.52.29-.71.18-.19.43-.3.7-.3.56 0 1 .45 1.01 1 0 .71.01 1.36.02 1.98.01.27-.09.52-.27.71-.19.2-.44.31-.7.31zm.45 7.99c-.52 0-.95-.39-.99-.91-.07-.74-.12-1.39-.17-2.01v-.08c0-.52.41-.95.93-.99.54-.05 1.02.37 1.06.91.01 0 .01.01.01.01v.06c.05.69.1 1.32.16 1.92.02.26-.06.52-.23.73-.17.2-.41.33-.68.35-.03.01-.06.01-.09.01zm1.01 7.93c-.49 0-.9-.35-.98-.83-.11-.65-.21-1.32-.31-1.99v-.01c-.01-.05-.01-.1-.01-.15 0-.5.36-.91.85-.98.54-.08 1.06.31 1.14.84.09.62.19 1.26.3 1.96.09.54-.28 1.06-.82 1.15-.06.01-.11.01-.17.01zm1.62 7.84c-.46 0-.86-.32-.97-.76-.18-.72-.33-1.37-.46-1.97-.02-.07-.03-.15-.03-.22 0-.47.32-.87.78-.98.53-.12 1.07.23 1.19.76.15.63.3 1.28.46 1.92.14.54-.19 1.08-.73 1.21-.08.03-.16.04-.24.04zm2.27 7.66c-.42 0-.8-.27-.94-.67-.23-.64-.44-1.29-.64-1.92-.03-.1-.05-.2-.05-.3 0-.44.28-.82.7-.96.51-.16 1.09.14 1.25.65.22.68.42 1.3.63 1.88.17.52-.1 1.09-.62 1.27-.11.03-.22.05-.33.05zm2.97 7.43c-.39 0-.75-.23-.91-.59-.26-.56-.53-1.17-.82-1.85-.06-.12-.08-.25-.08-.38-.01-.41.23-.77.6-.93.5-.21 1.1.03 1.32.53.26.61.53 1.22.8 1.8.23.5 0 1.1-.5 1.33-.13.06-.27.09-.41.09zm3.71 7.08c-.35 0-.68-.19-.85-.49-.36-.6-.7-1.18-1.01-1.74l-.01-.01c-.09-.16-.13-.33-.13-.5 0-.36.2-.69.51-.87.47-.26 1.1-.08 1.36.39.32.57.66 1.15.99 1.7.14.23.18.5.11.76-.06.26-.22.48-.45.62-.16.09-.34.14-.52.14zm4.51 6.6c-.31 0-.6-.14-.79-.39-.42-.54-.83-1.09-1.22-1.62-.12-.17-.19-.37-.19-.58 0-.32.15-.63.41-.82.43-.31 1.08-.21 1.4.22.4.56.8 1.08 1.18 1.57.34.44.26 1.07-.17 1.41-.18.13-.39.21-.62.21zm5.33 5.95c-.26 0-.51-.1-.7-.28-.5-.49-.99-.98-1.43-1.44-.18-.19-.28-.43-.28-.69 0-.28.11-.54.31-.73.38-.37 1.04-.35 1.41.03.44.46.91.93 1.39 1.4.19.18.3.43.3.7 0 .26-.1.52-.28.71-.19.19-.45.3-.72.3zm6.13 5.13c-.2 0-.4-.07-.57-.19-.53-.37-1.08-.78-1.64-1.22-.25-.18-.39-.47-.39-.78 0-.22.07-.44.21-.62.32-.42.97-.51 1.4-.18.5.39 1.02.77 1.58 1.17.21.16.36.39.4.65.05.26-.01.53-.17.74-.19.27-.49.43-.82.43zm6.86 4.08c-.15 0-.3-.04-.43-.1-.62-.3-1.23-.62-1.81-.94-.33-.17-.53-.51-.53-.87 0-.17.04-.33.12-.48.25-.47.88-.66 1.36-.41.61.34 1.18.63 1.74.9.49.24.7.84.45 1.34-.17.34-.51.56-.9.56zm7.45 2.89c-.1 0-.19-.01-.28-.04-.69-.2-1.33-.41-1.95-.62-.41-.14-.68-.52-.68-.95 0-.11.02-.21.06-.32.17-.51.75-.8 1.27-.62.59.2 1.2.39 1.86.59.26.08.47.25.6.48.13.24.15.51.08.76-.13.43-.52.72-.96.72zm-115.2101-340.51c-.15 0-.29-.03-.42-.09-.36-.16-.58-.52-.58-.91 0-.15.03-.29.09-.42.32-.68.58-1.26.82-1.8.22-.49.82-.73 1.32-.51.24.1.43.3.53.55.09.25.09.52-.02.77-.27.6-.55 1.22-.83 1.83-.17.36-.52.58-.91.58zm-69.56 1.02c-.18 0-.35-.04-.5-.13-.53-.3-1.07-.54-1.63-.72-.25-.08-.46-.25-.58-.49-.13-.23-.15-.5-.07-.76.16-.52.73-.82 1.25-.66.69.22 1.38.52 2.03.9.3.17.5.5.5.86 0 .18-.05.35-.14.5-.18.31-.51.5-.86.5zm-9.48.39c-.35 0-.67-.17-.85-.47-.29-.47-.15-1.08.32-1.38.64-.39 1.29-.72 1.94-.98h.02c.5-.19 1.08.07 1.28.56.05.12.07.24.07.37 0 .41-.24.77-.62.93h-.01l-.04.02c-.53.21-1.07.48-1.58.8-.16.1-.34.15-.53.15zm14.75 5.48c-.36 0-.7-.2-.88-.52-.3-.56-.63-1.11-.98-1.63-.31-.46-.19-1.08.27-1.39.45-.29 1.09-.17 1.39.28.36.53.72 1.13 1.07 1.77.01.01.01.01.01.02.08.14.12.31.12.47 0 .37-.2.71-.52.88-.15.08-.31.12-.48.12zm60.66.24c-.17 0-.34-.04-.49-.13-.31-.17-.5-.5-.51-.86 0-.17.04-.35.13-.5.31-.56.63-1.14.95-1.73.25-.48.88-.67 1.35-.42.24.13.41.34.49.59.07.26.05.53-.08.77-.29.54-.6 1.12-.96 1.77-.18.31-.52.51-.88.51zm-80.7.17c-.16 0-.32-.04-.46-.12-.49-.25-.68-.86-.42-1.35.33-.63.7-1.24 1.09-1.81.3-.44.95-.56 1.39-.26.27.19.44.5.43.83 0 .2-.06.39-.17.56-.35.51-.67 1.05-.97 1.61-.17.33-.51.54-.89.54zm76.5 6.63c-.2 0-.39-.06-.56-.17-.27-.19-.44-.5-.44-.83 0-.2.06-.38.17-.55 0 0 0-.01.01-.01.01-.01.02-.03.03-.04.36-.54.72-1.08 1.06-1.61.29-.44.93-.58 1.38-.29.47.3.6.92.3 1.38-.36.56-.74 1.13-1.12 1.69l-.01.01c-.18.26-.49.42-.82.42zm-53.62.42c-.45 0-.85-.31-.96-.74-.17-.63-.35-1.26-.55-1.88-.08-.26-.05-.53.07-.76.13-.24.34-.42.59-.49.52-.17 1.09.13 1.25.65.22.68.4 1.32.57 1.96.02.09.03.17.03.25.01.46-.3.86-.74.98-.08.02-.17.03-.26.03zm-24.85.62h-.02c-.27 0-.52-.11-.7-.3-.19-.19-.29-.45-.28-.71.01-.7.07-1.41.16-2.11.08-.54.59-.93 1.13-.86.5.07.87.5.86 1 0 .05 0 .09-.01.13-.08.62-.13 1.25-.14 1.87-.01.54-.46.98-1 .98zm73.66 5.35c-.23 0-.46-.09-.64-.24-.23-.19-.36-.47-.36-.77 0-.23.08-.46.23-.64.44-.52.86-1.03 1.25-1.53.33-.41.99-.49 1.41-.16.2.17.34.41.37.67.03.27-.05.53-.21.74-.41.51-.84 1.04-1.28 1.57-.19.23-.47.36-.77.36zm-47.43 1.9c-.52 0-.96-.41-1-.93-.05-.67-.11-1.32-.19-1.94-.04-.26.03-.52.2-.73.16-.22.4-.35.66-.38.55-.07 1.05.32 1.12.86.09.68.15 1.37.21 2.04v.08c0 .52-.41.96-.93 1zm-24.63.54c-.41 0-.78-.25-.93-.63-.26-.64-.49-1.29-.7-1.95v-.01c-.03-.09-.05-.19-.05-.3 0-.44.29-.82.71-.95.52-.16 1.09.14 1.25.66.19.6.4 1.21.64 1.81.1.24.1.51 0 .76-.11.24-.3.43-.55.54-.12.04-.25.07-.37.07zm66.6 3.39c-.28 0-.54-.11-.73-.31-.18-.19-.27-.43-.27-.69 0-.28.11-.53.31-.72.46-.44.93-.91 1.4-1.38.38-.38 1.04-.38 1.42-.01.39.39.39 1.02.01 1.42-.49.48-.98.96-1.45 1.42h-.02c-.18.18-.42.27-.67.27zm-62.52 3.44c-.3 0-.58-.13-.77-.36-.43-.53-.86-1.08-1.26-1.65-.12-.17-.18-.37-.18-.58 0-.32.16-.62.42-.81.44-.31 1.09-.2 1.39.24.38.52.77 1.03 1.17 1.52.35.43.3 1.06-.13 1.41-.18.15-.4.23-.64.23zm20.41.62c-.04 0-.07-.01-.11-.01-.51-.05-.9-.48-.89-1v-.1c.07-.63.12-1.28.17-1.95.03-.55.51-.98 1.06-.94s.97.52.93 1.07c-.04.65-.1 1.34-.17 2.03-.05.51-.48.9-.99.9zm35.98 1.07c-.32 0-.62-.15-.8-.4-.13-.18-.2-.39-.2-.6.01-.32.15-.61.4-.79 0-.01.01-.01.01-.01.01-.01.02-.02.04-.03.51-.38 1.03-.77 1.53-1.16.42-.33 1.07-.25 1.4.17.34.43.27 1.06-.17 1.4-.53.42-1.08.84-1.62 1.23-.17.13-.37.19-.59.19zm-50.5 3.69c-.21 0-.41-.06-.58-.18-.56-.39-1.12-.81-1.65-1.23-.24-.19-.38-.48-.38-.79 0-.22.08-.44.22-.61.33-.42.99-.5 1.41-.16.49.39 1.01.78 1.55 1.15.22.16.36.38.41.65.05.26-.01.53-.16.74-.19.27-.5.43-.82.43zm43.74.58c-.37 0-.7-.21-.88-.53-.08-.15-.12-.31-.12-.48.01-.37.21-.7.53-.87.61-.33 1.17-.64 1.72-.96.46-.27 1.1-.1 1.36.36.28.48.12 1.09-.36 1.37-.59.34-1.19.68-1.78.99-.14.08-.3.12-.47.12zm-30.68 2.51c-.08 0-.17-.01-.25-.03-.44-.12-.75-.52-.75-.97 0-.09.01-.17.04-.25.16-.61.31-1.26.46-1.91.12-.53.67-.88 1.2-.76s.87.66.75 1.2c-.14.64-.3 1.3-.48 1.97-.12.44-.51.75-.97.75zm-6.01.65c-.13 0-.25-.02-.37-.06-.61-.25-1.25-.52-1.89-.81-.36-.16-.59-.52-.58-.91 0-.14.03-.28.09-.41.22-.49.83-.72 1.32-.5.57.27 1.17.52 1.79.76.51.2.77.78.57 1.3-.15.38-.52.63-.93.63zm29.38.05c-.43 0-.81-.27-.95-.67-.03-.11-.05-.22-.05-.32-.01-.44.26-.82.67-.96.58-.2 1.19-.42 1.84-.68.5-.2 1.1.07 1.29.57.1.25.1.52-.01.76-.11.25-.3.44-.55.53-.67.27-1.29.5-1.91.71-.11.04-.22.06-.33.06zm-7.74 1.98c-.49 0-.91-.35-.99-.84-.01-.06-.01-.12-.01-.17 0-.49.36-.9.83-.98.66-.11 1.3-.23 1.93-.36.53-.12 1.07.24 1.18.77.11.54-.23 1.07-.77 1.19-.67.14-1.34.26-2.01.37-.05.01-.11.02-.16.02zm-13.94.07c-.05 0-.1-.01-.16-.02-.65-.1-1.33-.23-2.01-.38h-.02c-.45-.1-.77-.5-.77-.96 0-.08.01-.15.02-.23.11-.52.66-.88 1.19-.76.62.13 1.26.25 1.91.36.55.09.92.6.83 1.15-.08.49-.5.84-.99.84zm6.69.53h-.73c-.55-.01-.98-.45-.99-.99v-.03c.01-.54.46-.98 1-.98h.02c.63.01 1.27.01 1.95-.01h.03c.55 0 .98.42 1 .96.02.56-.42 1.02-.97 1.03-.42.02-.85.02-1.31.02zm-10.91 4.3c-.13 0-.26-.03-.38-.08-.38-.15-.62-.51-.63-.91 0-.13.03-.27.08-.39.25-.61.49-1.23.71-1.83.19-.51.78-.78 1.29-.6.51.2.78.78.59 1.29-.22.59-.46 1.21-.74 1.89-.15.38-.52.63-.92.63zm-3.44 7.21c-.17 0-.34-.04-.48-.12-.33-.18-.52-.52-.52-.88 0-.17.04-.33.12-.47v-.01c.01-.01.01-.02.02-.04.35-.65.64-1.19.9-1.7.25-.48.87-.68 1.35-.44.49.25.68.86.43 1.35-.29.58-.61 1.18-.95 1.79v.01c-.18.32-.51.51-.87.51zm-4.19 6.81c-.21 0-.4-.06-.57-.18-.27-.19-.44-.5-.43-.83 0-.2.06-.39.17-.56.35-.51.71-1.04 1.1-1.64.29-.45.93-.58 1.38-.29.23.14.38.37.44.63.05.26 0 .53-.14.75-.41.63-.78 1.18-1.12 1.68 0 0-.01 0-.01.01-.19.27-.49.43-.82.43zm-4.82 6.37c-.24 0-.46-.08-.64-.22-.23-.2-.36-.48-.36-.78 0-.23.08-.46.23-.63.41-.5.82-1.01 1.24-1.54.33-.42.99-.5 1.41-.16.21.16.34.4.37.66.03.27-.05.53-.21.74-.43.54-.86 1.07-1.27 1.57-.19.23-.47.36-.77.36zm-5.36 5.94c-.26 0-.51-.1-.7-.28-.19-.19-.29-.44-.3-.71 0-.26.1-.52.29-.71.42-.42.85-.88 1.37-1.42.36-.39 1.02-.41 1.41-.05.2.18.31.43.32.7s-.09.52-.27.71c-.44.47-.91.96-1.4 1.46-.19.2-.44.3-.72.3zm-5.79 5.5c-.29 0-.56-.12-.75-.33-.16-.18-.25-.42-.25-.66-.01-.29.12-.56.33-.76.49-.43.99-.87 1.48-1.32.39-.36 1.05-.33 1.41.07.37.4.34 1.04-.06 1.41-.55.5-1.04.94-1.5 1.34-.19.17-.42.25-.66.25zm-6.18 5.08c-.32 0-.6-.14-.8-.39-.13-.17-.2-.38-.2-.6-.01-.31.13-.6.38-.8h.01l.04-.03c.49-.38 1.01-.79 1.52-1.19.42-.34 1.08-.26 1.41.16.34.43.27 1.06-.16 1.4-.57.45-1.09.85-1.59 1.24-.18.14-.39.21-.61.21zm-6.5 4.66c-.33 0-.64-.17-.83-.44-.11-.17-.17-.36-.17-.56 0-.33.17-.65.44-.83.56-.38 1.12-.75 1.64-1.12.44-.3 1.09-.18 1.39.25.16.22.21.49.17.75-.05.26-.2.49-.42.64-.48.34-1.01.7-1.66 1.14h-.01c-.16.11-.35.17-.55.17zm-6.76 4.26c-.36 0-.69-.19-.87-.49-.09-.16-.14-.34-.13-.52 0-.35.18-.66.48-.84 0-.01 0-.01.01-.01.01-.01.03-.02.05-.03.54-.32 1.1-.66 1.65-.99.46-.28 1.1-.13 1.37.33.14.23.18.5.12.76s-.22.48-.45.62c-.64.39-1.21.73-1.73 1.03-.15.09-.33.14-.5.14zm-6.99 3.88c-.38 0-.72-.21-.89-.54-.08-.14-.12-.29-.12-.45 0-.38.21-.72.54-.9.71-.37 1.25-.65 1.76-.93.47-.25 1.1-.06 1.35.41.26.49.08 1.09-.4 1.35-.53.29-1.09.59-1.77.94-.01 0-.01.01-.01.01-.15.07-.31.11-.46.11zm-7.19 3.52c-.38 0-.74-.23-.91-.59-.06-.13-.09-.27-.09-.41 0-.39.22-.74.57-.91h.02c.01-.01.03-.02.05-.03.52-.24 1.08-.5 1.75-.81.48-.24 1.1-.01 1.33.47.11.24.13.51.04.76-.09.26-.28.46-.52.57-.56.27-1.15.55-1.81.85h-.01c-.13.06-.27.1-.42.1zm-7.34 3.16c-.41 0-.77-.24-.92-.62-.05-.12-.08-.24-.08-.37 0-.41.24-.78.63-.93.62-.26 1.24-.51 1.84-.76.49-.21 1.1.04 1.3.54.22.51-.02 1.09-.53 1.31-.59.24-1.2.5-1.86.76-.12.05-.25.07-.38.07zm-7.47 2.85c-.42 0-.8-.27-.94-.67-.04-.11-.06-.22-.06-.34 0-.42.27-.79.66-.93.63-.23 1.25-.45 1.87-.68.51-.19 1.1.09 1.29.59.19.52-.08 1.1-.6 1.29-.66.24-1.28.46-1.89.68-.1.04-.22.06-.33.06zm-7.59 2.53c-.44 0-.82-.28-.95-.7-.03-.1-.05-.2-.05-.3 0-.44.28-.82.71-.95.58-.19 1.2-.38 1.89-.61.52-.16 1.09.13 1.26.65.08.25.06.52-.06.76s-.33.42-.58.5c-.59.19-1.26.4-1.92.61-.1.03-.2.04-.3.04zm-7.67 2.24c-.45 0-.85-.3-.97-.73-.02-.1-.03-.19-.03-.28 0-.44.31-.83.74-.95.64-.18 1.28-.36 1.91-.53.52-.15 1.09.17 1.24.69.07.25.04.52-.09.76-.13.23-.35.4-.6.47-.65.18-1.29.36-1.94.54h-.01c-.08.02-.17.03-.25.03zm-7.76 1.97c-.46 0-.86-.32-.97-.77-.02-.08-.02-.15-.02-.23-.01-.47.31-.87.77-.98.7-.16 1.33-.31 1.93-.46.53-.13 1.08.21 1.21.73.13.54-.2 1.08-.73 1.21-.65.16-1.3.32-1.96.47-.07.02-.15.03-.23.03zm-7.81 1.7c-.47 0-.89-.34-.98-.8-.01-.07-.02-.13-.02-.2 0-.48.34-.89.81-.98.65-.13 1.3-.27 1.95-.4.53-.12 1.07.24 1.18.77.11.54-.23 1.07-.77 1.19-.66.13-1.31.27-1.97.4-.07.01-.13.02-.2.02zm-7.86 1.46c-.49 0-.9-.35-.99-.83-.01-.06-.01-.12-.01-.18 0-.49.35-.9.83-.98.66-.11 1.31-.22 1.96-.34.55-.1 1.07.27 1.16.81.1.55-.26 1.06-.81 1.16-.65.12-1.31.23-1.97.34-.06.01-.12.02-.17.02zm-7.91 1.22c-.49 0-.91-.37-.98-.86-.01-.04-.01-.08-.01-.13-.01-.5.36-.93.86-1 .66-.09 1.31-.19 1.97-.28.54-.08 1.06.31 1.13.84.08.55-.29 1.06-.84 1.14-.66.09-1.32.19-1.98.28h-.02c-.04.01-.09.01-.13.01zm-7.93 1.01c-.51 0-.94-.39-.99-.89-.01-.04-.01-.07-.01-.11 0-.51.38-.94.89-1 .66-.07 1.32-.15 1.98-.23.54-.06 1.04.33 1.11.88.07.54-.33 1.04-.87 1.11-.73.09-1.39.16-2 .23-.03 0-.07.01-.11.01zm-7.95.79c-.52 0-.96-.4-1-.91 0-.03 0-.05-.01-.08 0-.52.4-.96.92-1 .7-.07 1.33-.12 1.98-.18.56-.05 1.04.35 1.09.9s-.35 1.04-.9 1.09c-.66.06-1.33.12-2 .18zm-7.98.6c-.53 0-.97-.41-1-.94v-.07c.01-.52.42-.95.94-.99l.15-.01c.62-.04 1.23-.08 1.84-.12.54-.05 1.02.38 1.06.93.02.27-.07.52-.24.73-.18.2-.42.32-.69.34-.66.04-1.33.09-2 .13zm-45.97.1h-.06-.1c-.63-.04-1.26-.07-1.9-.11-.26-.01-.51-.13-.69-.33-.17-.2-.26-.46-.25-.72.03-.55.5-.99 1.06-.95.59.04 1.18.07 1.77.1l.22.01c.55.03.98.51.95 1.06-.03.53-.47.94-1 .94zm37.98.31c-.54 0-.98-.42-1-.96v-.05c.01-.53.43-.96.96-.98.67-.03 1.33-.06 1.99-.09.56-.03 1.02.4 1.05.95.02.55-.4 1.02-.95 1.05-.67.03-1.34.06-2.01.08zm-29.99.05-.3-.01c-.58-.03-1.16-.05-1.74-.07-.53-.02-.95-.45-.96-.99v-.05c.02-.55.48-.99 1.04-.96.67.03 1.33.05 2 .08.55.01.98.48.96 1.03-.02.54-.46.97-1 .97zm22.02.19h-.02c-.54 0-.99-.44-1-.98v-.03c0-.55.43-.98.98-.99.67-.01 1.33-.03 1.99-.04h.03c.54 0 .98.42 1 .97 0 .27-.09.52-.28.72-.18.19-.43.3-.7.31-.66.01-1.33.03-2 .04zm-14.02.01h-.02c-.66-.01-1.33-.02-2-.04-.54-.01-.98-.45-.98-.99v-.03c.01-.54.46-.97 1-.97h.02c.67.01 1.33.02 2 .03.55.01.99.47.98 1.02-.01.54-.46.98-1 .98zm6.68.06h-.68c-.27 0-.52-.11-.71-.3s-.29-.44-.29-.71c0-.55.45-.99 1-.99.68 0 1.32 0 1.97-.01h.02c.56 0 1.01.45 1.01 1 0 .27-.1.52-.29.71-.34.35-.88.3-1.37.3zm849.9202 138.4996h-.03c-.66-.02-1.321-.04-1.991-.06-.549-.01-.989-.47-.979-1.02.01-.54.46-.98 1-.98h.02c.68.02 1.35.04 2.01.06.55.01.97.46.97 1v.03c-.021.54-.45.97-1 .97zm7.99.37h-.06c-.66-.04-1.321-.08-1.991-.12-.269-.01-.509-.13-.689-.33s-.271-.46-.26-.72c.04-.55.5-.98 1.06-.95.67.04 1.34.08 2 .12.01 0 .01 0 .02.01.52.04.93.48.92 1v.05c-.04.53-.47.94-1 .94zm7.97.66c-.03 0-.07-.01-.101-.01-.609-.06-1.259-.12-1.979-.19-.55-.05-.96-.54-.91-1.09s.52-.95 1.09-.9c.71.06 1.36.12 2 .19.51.05.9.48.9.99 0 .04 0 .07-.01.11-.051.51-.48.9-.99.9zm7.93.96c-.04 0-.09 0-.14-.01-.65-.09-1.311-.18-1.97-.27-.26-.04-.5-.17-.66-.39-.16-.21-.23-.47-.2-.73.07-.54.57-.93 1.12-.86.62.08 1.27.17 1.99.27.5.07.86.48.86.98 0 .05 0 .1-.01.15-.07.49-.49.86-.99.86zm7.89 1.31c-.06 0-.131 0-.19-.02h-.03c-.61-.12-1.26-.24-1.92-.36-.27-.04-.5-.19-.65-.41s-.21-.48-.16-.75c.09-.53.62-.9 1.16-.81.63.12 1.3.24 1.98.37.469.1.81.51.81.99 0 .06-.01.12-.02.18-.09.47-.5.81-.98.81zm7.81 1.71c-.08 0-.16-.01-.24-.03-.59-.15-1.22-.3-1.93-.47-.26-.06-.481-.21-.63-.44-.141-.23-.181-.49-.12-.75.12-.53.67-.88 1.2-.75.7.16 1.34.31 1.95.46.45.12.76.51.77.96 0 .09-.01.17-.03.25-.11.45-.51.77-.97.77zm7.7 2.13c-.101 0-.2-.01-.3-.04-.66-.2-1.301-.4-1.9-.57-.26-.08-.47-.25-.6-.49-.12-.23-.15-.5-.08-.76.15-.51.73-.83 1.239-.67.671.19 1.321.39 1.931.58.42.13.71.51.71.95 0 .1-.02.2-.05.3-.131.42-.511.7-.95.7zm7.54 2.63c-.12 0-.24-.02-.36-.07-.62-.24-1.241-.47-1.85-.69-.52-.2-.79-.77-.6-1.29.19-.5.78-.78 1.29-.59.58.21 1.19.44 1.879.71.391.15.641.51.641.93 0 .13-.02.25-.06.36-.161.39-.53.64-.94.64zm7.33 3.17c-.15 0-.29-.03-.431-.1-.609-.29-1.209-.58-1.79-.84-.239-.11-.429-.31-.519-.56-.1-.25-.09-.52.019-.76.231-.49.841-.72 1.331-.5.66.3 1.26.58 1.83.86.35.16.57.51.57.9 0 .15-.04.29-.1.43-.171.35-.52.57-.91.57zm7.05 3.76c-.18 0-.351-.05-.51-.14-.61-.37-1.17-.69-1.71-.99-.48-.27-.65-.88-.381-1.36.261-.46.891-.65 1.361-.38.58.32 1.17.66 1.75 1.01h.009c.301.18.481.5.481.84 0 .19-.04.37-.14.52-.18.31-.5.5-.86.5zm6.67 4.39c-.21 0-.41-.07-.58-.2-.53-.38-1.071-.77-1.611-1.14-.219-.15-.369-.38-.419-.64-.041-.27.01-.53.169-.75.301-.44.951-.56 1.391-.25.529.37 1.069.75 1.649 1.17l.011.01c.25.19.39.47.4.79 0 .21-.07.42-.201.6-.189.25-.489.41-.809.41zm6.19 5.04c-.25 0-.48-.09-.671-.26-.489-.44-.979-.88-1.469-1.3-.42-.36-.47-1-.11-1.42.35-.4 1.01-.45 1.409-.1.491.42 1 .88 1.521 1.34.21.19.33.46.33.74 0 .25-.101.49-.27.67-.18.21-.451.33-.74.33zm5.6 5.7c-.29 0-.561-.13-.75-.34-.441-.5-.88-.99-1.32-1.46-.371-.41-.35-1.04.049-1.42.391-.36 1.061-.33 1.421.05.44.49.9.99 1.35 1.51.16.18.25.41.25.65 0 .29-.12.57-.34.76-.181.16-.42.25-.66.25zm4.9 6.31c-.33 0-.631-.17-.82-.44-.37-.54-.75-1.08-1.141-1.61-.329-.44-.229-1.07.221-1.39.42-.32 1.08-.22 1.39.21.389.53.78 1.09 1.179 1.66.111.17.171.36.171.56 0 .33-.16.64-.43.83-.17.12-.37.18-.57.18zm4.13 6.84c-.37 0-.71-.21-.89-.54-.29-.55-.59-1.11-.94-1.73-.27-.48-.1-1.09.38-1.36.47-.26 1.1-.08 1.359.38.321.56.631 1.14.971 1.78.08.14.12.3.12.46 0 .37-.2.72-.54.89-.14.08-.301.12-.46.12zm3.31 7.27c-.41 0-.79-.25-.94-.63-.25-.66-.49-1.25-.74-1.83-.21-.51.029-1.1.54-1.31.5-.21 1.1.04 1.31.53.259.64.52 1.27.759 1.88.04.12.071.24.061.37 0 .41-.25.78-.63.93-.12.04-.24.06-.36.06zm2.48 7.6c-.45 0-.85-.3-.97-.74-.161-.61-.34-1.25-.53-1.9-.08-.25-.051-.52.07-.76.129-.23.339-.4.6-.48.52-.15 1.09.16 1.239.67.21.69.391 1.33.551 1.95.029.08.04.17.04.25 0 .46-.301.86-.74.98-.09.02-.17.03-.26.03zm1.68 7.82c-.481 0-.91-.36-.981-.83-.109-.63-.219-1.27-.349-1.95-.05-.26.01-.53.16-.75.149-.22.38-.37.64-.42.53-.1 1.07.26 1.17.8.12.66.24 1.33.35 1.99.01.05.01.1.01.15.01.5-.35.92-.84 1-.05.01-.101.01-.16.01zm.93 7.95c-.52 0-.951-.4-.991-.92-.009 0-.009 0-.009-.01v-.06c-.05-.73-.1-1.33-.161-1.91-.049-.55.361-1.04.901-1.09.55-.05 1.04.36 1.09.9.06.64.12 1.32.17 2.02v.01.07c0 .52-.411.95-.93.99zm.22 8h-.01c-.55-.01-.98-.44-.99-.99v-.02c.01-.49.01-.96.01-1.4v-.29-.29c0-.27.1-.52.29-.71s.44-.3.71-.3c.55 0 1 .45 1 .99v.6c0 .46 0 .92-.01 1.43-.01.54-.461.98-1 .98zm-.45 7.99c-.03 0-.06-.01-.09-.01-.52-.05-.9-.48-.9-.99v-.1c.059-.61.12-1.25.17-1.97.04-.55.54-.96 1.08-.93.26.03.5.15.68.35.169.21.26.46.24.73-.06.67-.111 1.35-.18 2.01-.05.52-.48.91-1 .91zm-1.11 7.92c-.06 0-.12-.01-.18-.02-.48-.09-.82-.51-.82-.99 0-.05.01-.11.02-.16v-.02c0-.02.01-.04.01-.06.109-.56.21-1.18.33-1.89.09-.53.609-.91 1.15-.82.54.09.91.6.82 1.15-.1.65-.22 1.32-.34 1.99 0 0 0 .01-.01.02-.091.46-.5.8-.98.8zm-1.861 7.77c-.099 0-.189-.02-.29-.04-.42-.13-.719-.53-.71-.97 0-.09.011-.19.04-.28.191-.63.371-1.27.531-1.89.139-.52.69-.85 1.23-.71.529.14.85.69.699 1.22-.17.66-.359 1.32-.54 1.95-.13.43-.519.72-.96.72zm-2.649 7.54c-.13 0-.25-.02-.37-.07-.38-.16-.63-.52-.63-.94.01-.12.03-.25.08-.36.22-.56.46-1.16.72-1.84.19-.5.79-.77 1.29-.58.25.09.44.28.55.52s.12.52.03.77c-.25.65-.5 1.28-.74 1.88-.15.38-.52.62-.93.62zm-3.34 7.26c-.16 0-.32-.03-.46-.11-.33-.17-.54-.51-.54-.89 0-.16.04-.309.11-.45v-.01c.01-.01.02-.019.02-.03.27-.529.56-1.1.87-1.73.239-.49.85-.7 1.34-.46.24.121.42.32.5.57.09.26.07.53-.04.77-.32.64-.61 1.23-.91 1.81h-.01c-.17.33-.51.53-.88.53zm-3.98 6.941c-.19 0-.37-.061-.54-.161-.29-.18-.46-.49-.46-.839 0-.191.049-.371.15-.541.34-.52.68-1.07 1.05-1.68.269-.46.91-.61 1.37-.34.47.29.62.91.34 1.38-.34.56-.7 1.13-1.07 1.71v.02c-.19.281-.5.451-.84.451zm-4.56 6.559c-.221 0-.431-.07-.6-.2-.25-.19-.4-.489-.4-.8 0-.21.069-.42.2-.59 0 0 0-.01.01-.01 0-.01.02-.02.02-.04.379-.49.75-1 1.15-1.549.31-.421.96-.531 1.399-.221.441.33.54.95.221 1.4-.431.58-.82 1.11-1.2 1.62l-.01.01c-.19.24-.48.38-.79.38zm-5.09 6.18c-.25 0-.48-.1-.671-.26-.21-.189-.329-.46-.329-.74 0-.25.09-.489.26-.67.399-.449.83-.94 1.3-1.489.349-.401 1.01-.451 1.41-.101.21.17.33.41.35.68.02.26-.07.52-.241.73-.439.51-.889 1.02-1.339 1.51v.01c-.19.211-.46.33-.74.33zm-62.22 1.74c-.09 0-.19-.02-.28-.04l-.01-.01c-.01 0-.02 0-.02-.01-.57-.16-1.15-.27-1.71-.299-.27-.021-.51-.141-.69-.341-.18-.199-.26-.46-.25-.73.04-.54.52-.969 1.07-.929.729.049 1.47.179 2.18.399.42.12.71.51.71.95 0 .1-.01.2-.04.3-.121.41-.52.71-.96.71zm-8.8 3.021c-.2 0-.401-.061-.571-.17-.219-.161-.369-.391-.409-.651-.051-.26.01-.53.159-.75.431-.62.92-1.179 1.46-1.66 0-.01 0-.01.011-.01.39-.35 1.06-.32 1.41.08.17.18.26.42.26.67-.01.281-.13.55-.34.741-.41.37-.801.819-1.16 1.319-.181.27-.49.431-.82.431zm65.44.959c-.28 0-.54-.11-.73-.31-.18-.19-.281-.43-.27-.69 0-.28.11-.53.31-.72.51-.489.98-.93 1.429-1.38.371-.37 1.031-.37 1.411.011.39.399.379 1.029-.01 1.42-.47.46-.96.929-1.46 1.399-.18.181-.43.27-.68.27zm-50.62.98c-.37 0-.71-.2-.88-.52-.29-.53-.63-1.03-1.011-1.5-.169-.21-.25-.47-.219-.73.02-.27.15-.51.36-.68.41-.34 1.069-.27 1.41.14.46.57.869 1.181 1.22 1.82.08.151.12.31.12.48 0 .36-.21.7-.53.87-.14.08-.31.12-.47.12zm44.569 4.26c-.309 0-.589-.14-.79-.38-.139-.18-.21-.39-.21-.62 0-.3.131-.59.371-.78l.01-.01c.01-.01.03-.02.04-.03.5-.4 1.01-.81 1.5-1.21.4-.339 1.06-.28 1.4.13.17.21.25.47.23.73-.03.27-.15.511-.36.68-.481.4-.99.81-1.57 1.27-.18.141-.39.22-.621.22zm-61.089 1.4c-.48 0-.89-.34-.98-.8-.141-.66-.2-1.34-.2-2.009v-.17-.031c.01-.549.44-.98.99-.98h.029c.54.011.971.46.981 1v.02c0 .03 0 .06-.01.08v.081c0 .529.06 1.069.17 1.609.1.54-.24 1.07-.78 1.181-.071.009-.14.019-.2.019zm17.44 2.11c-.08 0-.16-.01-.23-.03-.46-.099-.78-.51-.77-.97 0-.08.01-.15.02-.23.15-.6.24-1.21.28-1.81.04-.549.5-.98 1.07-.93.55.04.96.511.93 1.06-.05.701-.16 1.42-.33 2.14-.111.45-.51.77-.97.77zm37.16 1.161c-.34 0-.66-.171-.84-.461-.11-.159-.16-.34-.171-.53 0-.35.171-.66.46-.85.651-.42 1.171-.77 1.641-1.09.439-.31 1.09-.18 1.39.25.31.46.2 1.08-.26 1.391-.51.359-1.06.729-1.68 1.129-.16.1-.35.161-.54.161zm-50.44 3.389c-.241 0-.48-.09-.66-.25-.54-.49-1.05-.99-1.5-1.5-.161-.179-.25-.41-.25-.65 0-.3.12-.569.339-.76.391-.349 1.051-.32 1.401.08h.01c.01.02.02.03.03.05.389.43.83.86 1.3 1.28.41.37.45 1 .08 1.41-.19.22-.46.34-.75.34zm43.509.611c-.379 0-.719-.211-.889-.54-.07-.141-.111-.301-.111-.46 0-.381.21-.721.551-.891.56-.28 1.15-.59 1.74-.92.47-.25 1.11-.059 1.36.4.26.49.08 1.1-.401 1.36-.659.36-1.239.67-1.779.94-.011 0-.011.01-.011.01-.149.07-.299.101-.46.101zm-33.909 1.869c-.23 0-.461-.08-.64-.239-.23-.191-.36-.471-.36-.771 0-.229.09-.46.24-.64.07-.089.15-.18.22-.27.329-.42.64-.84.909-1.239.301-.441.951-.571 1.391-.271.46.311.58.93.27 1.39-.31.45-.64.91-1 1.36l-.05.061c-.071.079-.13.17-.2.25l-.01.009c-.191.23-.47.36-.77.36zm26.579 1.32c-.42 0-.799-.269-.939-.66-.04-.109-.061-.23-.061-.35 0-.42.271-.79.661-.929.58-.211 1.18-.441 1.839-.701.5-.2 1.101.06 1.301.56.1.25.09.521-.011.76-.109.25-.299.44-.549.54-.61.24-1.23.471-1.911.721-.099.04-.219.059-.33.059zm-29.349.3c-.13 0-.26-.029-.38-.08-.64-.25-1.28-.54-1.89-.84-.341-.17-.56-.52-.56-.899 0-.151.04-.301.1-.441.24-.479.86-.69 1.34-.45.59.28 1.18.54 1.76.78.25.1.439.29.55.54.1.24.11.51 0 .76-.15.38-.51.63-.92.63zm-49.111 1.32c-.08 0-.159-.01-.239-.03-.721-.18-1.4-.37-1.94-.51l-.031-.01c-.529-.16-.839-.71-.689-1.23.149-.52.72-.84 1.24-.7.03.02.71.21 1.909.51.261.06.481.22.611.45.139.23.179.5.12.76-.12.451-.521.76-.981.76zm70.75.48c-.489 0-.899-.34-.989-.82-.011-.049-.011-.11-.011-.17 0-.49.341-.9.821-.99.639-.12 1.28-.25 1.91-.389.519-.131 1.08.219 1.2.75.12.529-.21 1.069-.75 1.199-.681.15-1.36.29-2 .41-.06.01-.12.01-.181.01zm-13.929.27c-.05 0-.1 0-.151-.01-.659-.1-1.339-.22-2.009-.36h-.02c-.46-.1-.79-.51-.79-.979 0-.071 0-.141.02-.201.11-.53.65-.89 1.18-.78.6.13 1.25.24 1.92.35.54.08.92.591.84 1.131-.08.5-.5.849-.99.849zm6.06.46h-.091s-.009 0-.009-.01c-.27 0-.51-.1-.7-.29s-.291-.44-.291-.71c.011-.54.451-.99.991-.99.03-.01.05-.01.08 0h.02c.64 0 1.26-.019 1.869-.05.54-.03 1.021.411 1.04.96.031.55-.399 1.02-.949 1.04-.69.031-1.33.05-1.96.05zm-17.49.37c-.41 0-.78-.24-.931-.62-.049-.12-.079-.25-.079-.389.01-.401.25-.761.63-.911.59-.24 1.17-.52 1.72-.81.479-.25 1.1-.05 1.35.42.26.49.07 1.1-.42 1.35-.59.321-1.23.62-1.89.89-.12.05-.25.07-.38.07zm-37.56.16c-.07 0-.13-.01-.2-.02-.72-.14-1.37-.27-1.97-.399-.46-.101-.8-.511-.8-.981 0-.07.01-.13.02-.2.11-.529.65-.89 1.19-.779.73.149 1.349.279 1.95.389.54.111.89.64.79 1.18-.101.471-.51.81-.98.81zm7.89 1.32c-.04 0-.09-.01-.14-.01-.581-.08-1.21-.17-1.98-.29h-.01c-.49-.08-.85-.5-.85-.99 0-.05 0-.1.009-.15.081-.54.611-.92 1.141-.84.649.1 1.319.19 1.97.291.26.029.5.169.66.379.16.22.229.48.189.741-.069.489-.489.869-.989.869zm21.94.511c-.5 0-.92-.371-.991-.861-.009-.05-.009-.099-.009-.15 0-.5.36-.909.86-.98.689-.1 1.32-.2 1.92-.32.54-.1 1.07.27 1.17.8.05.261 0 .53-.151.75-.149.22-.379.37-.639.42-.66.12-1.34.24-2.02.33-.051.011-.1.011-.14.011zm-13.98.319h-.07c-.651-.05-1.33-.1-2.01-.16-.52-.039-.92-.49-.91-1.01v-.069c.05-.54.55-.96 1.08-.911h.03c.61.05 1.239.1 1.949.15.261.02.5.14.681.34.18.2.26.461.25.73-.04.52-.48.93-1 .93zm6 .21c-.55 0-1-.449-1-1 0-.27.1-.52.29-.71s.44-.29.71-.29c.73 0 1.37-.02 1.97-.04h.03c.54 0 .98.43 1 .97.02.56-.42 1.02-.971 1.03-.67.03-1.349.04-2.029.04z" fill="#565656"/></g></g></svg>